<svg width="406" height="396" version="1.1" xmlns="http://www.w3.org/2000/svg" desc="Created with imagetracer.js version 1.2.6" ><path fill="rgb(255,255,255)" stroke="rgb(255,255,255)" stroke-width="1" opacity="0.4980392156862745" d="M 184.5 1 L 194 1.5 L 184.5 2 L 184.5 1 Z " /><path fill="rgb(255,255,255)" stroke="rgb(255,255,255)" stroke-width="1" opacity="0.4980392156862745" d="M 213.5 1 L 224 1.5 L 213.5 2 L 213.5 1 Z " /><path fill="rgb(255,255,255)" stroke="rgb(255,255,255)" stroke-width="1" opacity="0.4980392156862745" d="M 176.5 2 L 181 2.5 L 176.5 3 L 176.5 2 Z " /><path fill="rgb(255,255,255)" stroke="rgb(255,255,255)" stroke-width="1" opacity="0.4980392156862745" d="M 226.5 2 L 232 2.5 L 226.5 3 L 226.5 2 Z " /><path fill="rgb(255,255,255)" stroke="rgb(255,255,255)" stroke-width="1" opacity="0.4980392156862745" d="M 169.5 3 L 174 3.5 L 169.5 4 L 169.5 3 Z " /><path fill="rgb(255,255,255)" stroke="rgb(255,255,255)" stroke-width="1" opacity="0.4980392156862745" d="M 233.5 3 L 238 3.5 L 233.5 4 L 233.5 3 Z " /><path fill="rgb(255,255,255)" stroke="rgb(255,255,255)" stroke-width="1" opacity="0.4980392156862745" d="M 164.5 4 L 168 4.5 L 164.5 5 L 164.5 4 Z " /><path fill="rgb(255,255,255)" stroke="rgb(255,255,255)" stroke-width="1" opacity="0.4980392156862745" d="M 239.5 4 L 243 4.5 L 239.5 5 L 239.5 4 Z " /><path fill="rgb(255,255,255)" stroke="rgb(255,255,255)" stroke-width="1" opacity="0.4980392156862745" d="M 159.5 5 L 163 5.5 L 152.5 8 L 152.5 7 L 159.5 5 Z " /><path fill="rgb(255,255,255)" stroke="rgb(255,255,255)" stroke-width="1" opacity="0.4980392156862745" d="M 244.5 5 L 248 5.5 L 244.5 6 L 244.5 5 Z " /><path fill="rgb(255,255,255)" stroke="rgb(255,255,255)" stroke-width="1" opacity="0.4980392156862745" d="M 249.5 6 L 252 6.5 L 249.5 7 L 249.5 6 Z " /><path fill="rgb(255,255,255)" stroke="rgb(255,255,255)" stroke-width="1" opacity="0.4980392156862745" d="M 253.5 7 L 256 7.5 L 253.5 8 L 253.5 7 Z " /><path fill="rgb(255,255,255)" stroke="rgb(255,255,255)" stroke-width="1" opacity="0.4980392156862745" d="M 148.5 8 L 151 8.5 L 145.5 10 L 145.5 9 L 148.5 8 Z " /><path fill="rgb(255,255,255)" stroke="rgb(255,255,255)" stroke-width="1" opacity="0.4980392156862745" d="M 260.5 9 L 271 12.5 L 269.5 13 L 260.5 10 L 260.5 9 Z " /><path fill="rgb(255,255,255)" stroke="rgb(255,255,255)" stroke-width="1" opacity="0.4980392156862745" d="M 136.5 12 L 138 12.5 L 122.5 19 L 122.5 18 L 136.5 12 Z " /><path fill="rgb(255,255,255)" stroke="rgb(255,255,255)" stroke-width="1" opacity="0.4980392156862745" d="M 275.5 14 L 281 16.5 L 279.5 17 L 275.5 15 L 275.5 14 Z " /><path fill="rgb(255,255,255)" stroke="rgb(255,255,255)" stroke-width="1" opacity="0.4980392156862745" d="M 282.5 17 L 299 25.5 L 297.5 25 L 282.5 18 L 282.5 17 Z " /><path fill="rgb(255,255,255)" stroke="rgb(255,255,255)" stroke-width="1" opacity="0.4980392156862745" d="M 119.5 19 L 121 19.5 L 112.5 24 L 113.5 22 L 119.5 19 Z " /><path fill="rgb(255,255,255)" stroke="rgb(255,255,255)" stroke-width="1" opacity="0.4980392156862745" d="M 110.5 24 L 109.5 26 L 100.5 31 L 101.5 29 L 110.5 24 Z " /><path fill="rgb(255,255,255)" stroke="rgb(255,255,255)" stroke-width="1" opacity="0.4980392156862745" d="M 302.5 27 L 306 29.5 L 304.5 29 L 302.5 27 Z " /><path fill="rgb(255,255,255)" stroke="rgb(255,255,255)" stroke-width="1" opacity="0.4980392156862745" d="M 307.5 30 L 309.5 33 L 301 32.5 L 308 31.5 L 307.5 30 Z " /><path fill="rgb(255,255,255)" stroke="rgb(255,255,255)" stroke-width="1" opacity="0.4980392156862745" d="M 98.5 31 L 97.5 33 L 87.5 40 L 89.5 37 L 98.5 31 Z " /><path fill="rgb(255,255,255)" stroke="rgb(255,255,255)" stroke-width="1" opacity="0.4980392156862745" d="M 283.5 33 L 296 33.5 L 283.5 34 L 283.5 33 Z " /><path fill="rgb(255,255,255)" stroke="rgb(255,255,255)" stroke-width="1" opacity="0.4980392156862745" d="M 266.5 34 L 279 34.5 L 272.5 36 L 261.5 36 L 261.5 35 L 266.5 34 Z " /><path fill="rgb(255,255,255)" stroke="rgb(255,255,255)" stroke-width="1" opacity="0.4980392156862745" d="M 277.5 36 L 289 36.5 L 277.5 37 L 277.5 36 Z " /><path fill="rgb(255,255,255)" stroke="rgb(255,255,255)" stroke-width="1" opacity="0.4980392156862745" d="M 293.5 37 L 305 37.5 L 293.5 38 L 293.5 37 Z " /><path fill="rgb(255,255,255)" stroke="rgb(255,255,255)" stroke-width="1" opacity="0.4980392156862745" d="M 309.5 38 L 319.5 38 L 347 62.5 L 336.5 53 L 319.5 39 L 309.5 39 L 309.5 38 Z " /><path fill="rgb(255,255,255)" stroke="rgb(255,255,255)" stroke-width="1" opacity="0.4980392156862745" d="M 85.5 40 L 82.5 44 Q 67.7 53.7 57 67.5 L 48.5 78 L 51 74.5 Q 61.1 59.1 75.5 48 L 85.5 40 Z " /><path fill="rgb(255,255,255)" stroke="rgb(255,255,255)" stroke-width="1" opacity="0.4980392156862745" d="M 193.5 62 L 201 73.5 L 199 72.5 L 193.5 64 L 192.5 66 L 192 64.5 L 193.5 62 Z " /><path fill="rgb(255,255,255)" stroke="rgb(255,255,255)" stroke-width="1" opacity="0.4980392156862745" d="M 347.5 64 L 361 79.5 L 357 76.5 L 347.5 64 Z " /><path fill="rgb(255,255,255)" stroke="rgb(255,255,255)" stroke-width="1" opacity="0.4980392156862745" d="M 287.5 65 L 288 67.5 Q 286.8 72.8 289.5 74 L 294 77.5 L 288.5 79 L 288.5 78 L 292 76.5 L 287 72.5 Q 288.3 66.4 285.5 67 Q 285 70.5 280.5 70 L 278 68.5 L 279.5 68 L 282.5 69 L 287.5 65 Z " /><path fill="rgb(255,255,255)" stroke="rgb(255,255,255)" stroke-width="1" opacity="0.4980392156862745" d="M 191.5 67 L 192 68.5 L 190.5 71 L 190 69.5 L 191.5 67 Z " /><path fill="rgb(255,255,255)" stroke="rgb(255,255,255)" stroke-width="1" opacity="0.4980392156862745" d="M 274.5 67 L 277 67.5 L 276 70.5 L 277 75.5 L 274 80 L 280.5 80 L 281 81.5 L 283 85 Q 285.7 83.9 285 86.5 L 282 84.5 L 279.5 81 L 272 80.5 L 276 75.5 L 276 71.5 L 274.5 67 Z " /><path fill="rgb(255,255,255)" stroke="rgb(255,255,255)" stroke-width="1" opacity="0.4980392156862745" d="M 189.5 72 L 190 73.5 L 186.5 78 L 179.5 79 L 179.5 78 L 186.5 77 L 188 75.5 L 189.5 72 Z " /><path fill="rgb(255,255,255)" stroke="rgb(255,255,255)" stroke-width="1" opacity="0.4980392156862745" d="M 201.5 75 L 207 75.5 L 201.5 76 L 201.5 75 Z " /><path fill="rgb(255,255,255)" stroke="rgb(255,255,255)" stroke-width="1" opacity="0.4980392156862745" d="M 211.5 76 Q 217.6 74.8 217 77.5 L 208 87.5 L 207.5 91 L 207 87.5 L 216 77.5 L 211.5 77 L 211.5 76 Z " /><path fill="rgb(255,255,255)" stroke="rgb(255,255,255)" stroke-width="1" opacity="0.4980392156862745" d="M 47.5 79 L 46 81.5 L 43.5 85 L 45 82.5 L 47.5 79 Z " /><path fill="rgb(255,255,255)" stroke="rgb(255,255,255)" stroke-width="1" opacity="0.4980392156862745" d="M 175.5 79 L 178 79.5 L 175.5 80 L 175.5 79 Z " /><path fill="rgb(255,255,255)" stroke="rgb(255,255,255)" stroke-width="1" opacity="0.4980392156862745" d="M 286.5 79 L 287 80.5 L 285.5 84 L 285 81.5 L 286.5 79 Z " /><path fill="rgb(255,255,255)" stroke="rgb(255,255,255)" stroke-width="1" opacity="0.4980392156862745" d="M 173.5 80 L 185 89 L 184.5 99 L 184 90.5 L 179.5 86 L 173.5 80 Z " /><path fill="rgb(255,255,255)" stroke="rgb(255,255,255)" stroke-width="1" opacity="0.4980392156862745" d="M 361.5 81 L 376 103.5 L 374 102.5 L 361.5 81 Z " /><path fill="rgb(255,255,255)" stroke="rgb(255,255,255)" stroke-width="1" opacity="0.4980392156862745" d="M 42.5 86 L 41.5 88 L 42.5 86 Z " /><path fill="rgb(255,255,255)" stroke="rgb(255,255,255)" stroke-width="1" opacity="0.4980392156862745" d="M 40.5 89 L 39.5 91 L 40.5 89 Z " /><path fill="rgb(255,255,255)" stroke="rgb(255,255,255)" stroke-width="1" opacity="0.4980392156862745" d="M 38.5 92 L 38 93.5 L 37.5 95 L 37 93.5 L 38.5 92 Z " /><path fill="rgb(255,255,255)" stroke="rgb(255,255,255)" stroke-width="1" opacity="0.4980392156862745" d="M 208.5 92 L 209 94.5 L 208 94.5 L 208.5 92 Z " /><path fill="rgb(255,255,255)" stroke="rgb(255,255,255)" stroke-width="1" opacity="0.4980392156862745" d="M 148.5 93 L 150 93.5 L 150 100.5 L 150.5 102 L 149 100.5 L 148.5 94 L 143.5 98 L 145.5 95 L 148.5 93 Z " /><path fill="rgb(255,255,255)" stroke="rgb(255,255,255)" stroke-width="1" opacity="0.4980392156862745" d="M 40.5 95 L 53 95.5 L 40.5 96 L 40.5 95 Z " /><path fill="rgb(255,255,255)" stroke="rgb(255,255,255)" stroke-width="1" opacity="0.4980392156862745" d="M 136 95 L 139 95.5 L 137 96.5 L 139 102.5 L 134.5 108 L 136 105.5 L 138 100.5 L 136 95 Z " /><path fill="rgb(255,255,255)" stroke="rgb(255,255,255)" stroke-width="1" opacity="0.4980392156862745" d="M 57.5 96 L 71 96.5 L 57.5 97 L 57.5 96 Z " /><path fill="rgb(255,255,255)" stroke="rgb(255,255,255)" stroke-width="1" opacity="0.4980392156862745" d="M 209.5 96 L 210 98.5 L 209 98.5 L 209.5 96 Z " /><path fill="rgb(255,255,255)" stroke="rgb(255,255,255)" stroke-width="1" opacity="0.4980392156862745" d="M 75.5 97 L 88 97.5 L 75.5 98 L 75.5 97 Z " /><path fill="rgb(255,255,255)" stroke="rgb(255,255,255)" stroke-width="1" opacity="0.4980392156862745" d="M 196.5 97 L 200 98.5 L 198.5 99 L 196.5 98 L 183 106 L 183.5 102 L 184.5 105 L 196.5 97 Z " /><path fill="rgb(255,255,255)" stroke="rgb(255,255,255)" stroke-width="1" opacity="0.4980392156862745" d="M 92 98 L 106 98.5 L 103.5 100 L 92 100 L 92 98 Z " /><path fill="rgb(255,255,255)" stroke="rgb(255,255,255)" stroke-width="1" opacity="0.4980392156862745" d="M 201.5 99 L 205 100.5 L 203.5 101 L 201.5 99 Z " /><path fill="rgb(255,255,255)" stroke="rgb(255,255,255)" stroke-width="1" opacity="0.4980392156862745" d="M 77.5 100 L 88 100.5 L 77.5 101 L 77.5 100 Z " /><path fill="rgb(255,255,255)" stroke="rgb(255,255,255)" stroke-width="1" opacity="0.4980392156862745" d="M 210.5 100 L 211 103.5 L 209.5 103 L 208 102.5 L 210 102 L 210.5 100 Z " /><path fill="rgb(255,255,255)" stroke="rgb(255,255,255)" stroke-width="1" opacity="0.4980392156862745" d="M 61.5 101 L 72 101.5 L 61.5 102 L 61.5 101 Z " /><path fill="rgb(255,255,255)" stroke="rgb(255,255,255)" stroke-width="1" opacity="0.4980392156862745" d="M 45.5 102 L 57 102.5 L 45.5 103 L 45.5 102 Z " /><path fill="rgb(255,255,255)" stroke="rgb(255,255,255)" stroke-width="1" opacity="0.4980392156862745" d="M 152.5 102 L 156 104.5 L 152.5 106 L 152.5 105 L 154 104.5 L 152.5 102 Z " /><path fill="rgb(255,255,255)" stroke="rgb(255,255,255)" stroke-width="1" opacity="0.4980392156862745" d="M 32.5 103 L 41 103.5 L 32.5 104 L 31.5 105 L 32.5 103 Z " /><path fill="rgb(255,255,255)" stroke="rgb(255,255,255)" stroke-width="1" opacity="0.4980392156862745" d="M 376.5 105 L 380 111.5 L 379 111.5 L 376.5 105 Z " /><path fill="rgb(255,255,255)" stroke="rgb(255,255,255)" stroke-width="1" opacity="0.4980392156862745" d="M 142.5 108 L 145.5 113 L 147.5 108 L 148 110.5 L 147 114 L 144 112.5 L 142.5 108 Z " /><path fill="rgb(255,255,255)" stroke="rgb(255,255,255)" stroke-width="1" opacity="0.4980392156862745" d="M 381.5 115 L 384 120.5 L 383 120.5 L 381.5 115 Z " /><path fill="rgb(255,255,255)" stroke="rgb(255,255,255)" stroke-width="1" opacity="0.4980392156862745" d="M 25.5 116 L 26 117.5 L 24.5 120 L 24 118.5 L 25.5 116 Z " /><path fill="rgb(255,255,255)" stroke="rgb(255,255,255)" stroke-width="1" opacity="0.4980392156862745" d="M 250.5 118 L 251 128.5 L 254 131.5 L 251.5 130 L 250 129.5 L 250 120.5 L 248 120.5 L 250.5 118 Z " /><path fill="rgb(255,255,255)" stroke="rgb(255,255,255)" stroke-width="1" opacity="0.4980392156862745" d="M 232 121 L 234 121.5 L 234 123.5 L 236 131.5 L 234 132.5 L 235 129.5 L 232 121 Z " /><path fill="rgb(255,255,255)" stroke="rgb(255,255,255)" stroke-width="1" opacity="0.4980392156862745" d="M 246.5 121 L 244.5 124 L 240.5 125 L 238 123.5 L 239.5 123 L 242.5 124 L 246.5 121 Z " /><path fill="rgb(255,255,255)" stroke="rgb(255,255,255)" stroke-width="1" opacity="0.4980392156862745" d="M 384.5 122 L 386 125.5 L 385 125.5 L 384.5 122 Z " /><path fill="rgb(255,255,255)" stroke="rgb(255,255,255)" stroke-width="1" opacity="0.4980392156862745" d="M 21.5 126 L 22 127.5 L 20.5 130 L 20 128.5 L 21.5 126 Z " /><path fill="rgb(255,255,255)" stroke="rgb(255,255,255)" stroke-width="1" opacity="0.4980392156862745" d="M 386.5 127 L 391 140.5 L 390 140.5 L 386.5 127 Z " /><path fill="rgb(255,255,255)" stroke="rgb(255,255,255)" stroke-width="1" opacity="0.4980392156862745" d="M 255.5 132 L 259 134 Q 260.3 137 256.5 136 L 253.5 137 L 253.5 136 L 257 134.5 L 255.5 132 Z " /><path fill="rgb(255,255,255)" stroke="rgb(255,255,255)" stroke-width="1" opacity="0.4980392156862745" d="M 233.5 134 L 231 137.5 L 231.5 139 L 239.5 139 L 244 144.5 L 241 142.5 L 239.5 140 L 229 139.5 L 233.5 134 Z " /><path fill="rgb(255,255,255)" stroke="rgb(255,255,255)" stroke-width="1" opacity="0.4980392156862745" d="M 197.5 136 L 200 136.5 L 193.5 140 L 195.5 137 L 197.5 136 Z " /><path fill="rgb(255,255,255)" stroke="rgb(255,255,255)" stroke-width="1" opacity="0.4980392156862745" d="M 201.5 137 Q 205.5 137.5 205 142.5 L 204 142.5 L 201.5 137 Z " /><path fill="rgb(255,255,255)" stroke="rgb(255,255,255)" stroke-width="1" opacity="0.4980392156862745" d="M 248.5 138 L 249 140.5 L 245.5 148 L 244.5 146 L 246 146.5 L 248.5 138 Z " /><path fill="rgb(255,255,255)" stroke="rgb(255,255,255)" stroke-width="1" opacity="0.4980392156862745" d="M 320.5 139 Q 323.9 138.1 322 143.5 L 321 143.5 L 320.5 140 L 315.5 144 L 318.5 140 L 320.5 139 Z " /><path fill="rgb(255,255,255)" stroke="rgb(255,255,255)" stroke-width="1" opacity="0.4980392156862745" d="M 16.5 140 L 17 142.5 L 16 142.5 L 16.5 140 Z " /><path fill="rgb(255,255,255)" stroke="rgb(255,255,255)" stroke-width="1" opacity="0.4980392156862745" d="M 192.5 141 L 193 144.5 L 192 144.5 L 192.5 141 Z " /><path fill="rgb(255,255,255)" stroke="rgb(255,255,255)" stroke-width="1" opacity="0.4980392156862745" d="M 308 141 L 311 141.5 L 309 142 L 311 147.5 L 309 146.5 L 308 141 Z " /><path fill="rgb(255,255,255)" stroke="rgb(255,255,255)" stroke-width="1" opacity="0.4980392156862745" d="M 391.5 142 L 394 152.5 L 393 152.5 L 391.5 142 Z " /><path fill="rgb(255,255,255)" stroke="rgb(255,255,255)" stroke-width="1" opacity="0.4980392156862745" d="M 15.5 144 L 16 146.5 L 14.5 151 L 14 147.5 L 15.5 144 Z " /><path fill="rgb(255,255,255)" stroke="rgb(255,255,255)" stroke-width="1" opacity="0.4980392156862745" d="M 205.5 144 L 206 147.5 L 205 147.5 L 205.5 144 Z " /><path fill="rgb(255,255,255)" stroke="rgb(255,255,255)" stroke-width="1" opacity="0.4980392156862745" d="M 193.5 146 L 194 149.5 L 193 149.5 L 193.5 146 Z " /><path fill="rgb(255,255,255)" stroke="rgb(255,255,255)" stroke-width="1" opacity="0.4980392156862745" d="M 321.5 146 L 323.5 149 L 321.5 146 Z " /><path fill="rgb(255,255,255)" stroke="rgb(255,255,255)" stroke-width="1" opacity="0.4980392156862745" d="M 206.5 149 L 207 153.5 L 206 153.5 L 206.5 149 Z " /><path fill="rgb(255,255,255)" stroke="rgb(255,255,255)" stroke-width="1" opacity="0.4980392156862745" d="M 309.5 149 L 307 152.5 L 306.5 154 L 306 152.5 L 309.5 149 Z " /><path fill="rgb(255,255,255)" stroke="rgb(255,255,255)" stroke-width="1" opacity="0.4980392156862745" d="M 325.5 149 Q 328.5 150.5 325.5 152 L 320 153 L 319.5 155 L 319 153.5 L 326 150.5 L 325.5 149 Z " /><path fill="rgb(255,255,255)" stroke="rgb(255,255,255)" stroke-width="1" opacity="0.4980392156862745" d="M 13.5 152 L 14 154.5 L 13 154.5 L 13.5 152 Z " /><path fill="rgb(255,255,255)" stroke="rgb(255,255,255)" stroke-width="1" opacity="0.4980392156862745" d="M 194.5 152 L 195 156.5 L 194 156.5 L 194.5 152 Z " /><path fill="rgb(255,255,255)" stroke="rgb(255,255,255)" stroke-width="1" opacity="0.4980392156862745" d="M 313.5 154 L 317.5 159 L 318.5 156 L 319 158.5 Q 317 162 315 157.5 L 313.5 154 Z " /><path fill="rgb(255,255,255)" stroke="rgb(255,255,255)" stroke-width="1" opacity="0.4980392156862745" d="M 394.5 154 L 395 156.5 L 394 156.5 L 394.5 154 Z " /><path fill="rgb(255,255,255)" stroke="rgb(255,255,255)" stroke-width="1" opacity="0.4980392156862745" d="M 207.5 155 L 208 161.5 L 207 161.5 L 207.5 155 Z " /><path fill="rgb(255,255,255)" stroke="rgb(255,255,255)" stroke-width="1" opacity="0.4980392156862745" d="M 12.5 156 L 13 159.5 L 12 159.5 L 12.5 156 Z " /><path fill="rgb(255,255,255)" stroke="rgb(255,255,255)" stroke-width="1" opacity="0.4980392156862745" d="M 115.5 156 L 117 156.5 L 117 169.5 L 118.5 170 L 120.5 173 L 116 169.5 L 115.5 157 L 106.5 164 L 104.5 164 L 96 160.5 L 97.5 160 L 106.5 163 L 115.5 156 Z " /><path fill="rgb(255,255,255)" stroke="rgb(255,255,255)" stroke-width="1" opacity="0.4980392156862745" d="M 93 159 L 95 159.5 L 94 161.5 L 98 171.5 L 96 170.5 L 93 159 Z " /><path fill="rgb(255,255,255)" stroke="rgb(255,255,255)" stroke-width="1" opacity="0.4980392156862745" d="M 395.5 159 L 396 162.5 L 395 162.5 L 395.5 159 Z " /><path fill="rgb(255,255,255)" stroke="rgb(255,255,255)" stroke-width="1" opacity="0.4980392156862745" d="M 195.5 160 L 196 177.5 L 195 177.5 L 195.5 160 Z " /><path fill="rgb(255,255,255)" stroke="rgb(255,255,255)" stroke-width="1" opacity="0.4980392156862745" d="M 11.5 161 L 12 165.5 L 11 165.5 L 11.5 161 Z " /><path fill="rgb(255,255,255)" stroke="rgb(255,255,255)" stroke-width="1" opacity="0.4980392156862745" d="M 396.5 164 L 397 168.5 L 396 168.5 L 396.5 164 Z " /><path fill="rgb(255,255,255)" stroke="rgb(255,255,255)" stroke-width="1" opacity="0.4980392156862745" d="M 208.5 165 L 209 184.5 L 208 184.5 L 208.5 165 Z " /><path fill="rgb(255,255,255)" stroke="rgb(255,255,255)" stroke-width="1" opacity="0.4980392156862745" d="M 10.5 168 L 11 173.5 L 10 173.5 L 10.5 168 Z " /><path fill="rgb(255,255,255)" stroke="rgb(255,255,255)" stroke-width="1" opacity="0.4980392156862745" d="M 397.5 171 L 398 177.5 L 397 177.5 L 397.5 171 Z " /><path fill="rgb(255,255,255)" stroke="rgb(255,255,255)" stroke-width="1" opacity="0.4980392156862745" d="M 96.5 173 L 94 176.5 L 91 182 L 102.5 182 L 104 183.5 L 109.5 192 Q 111.8 191.3 111 193.5 L 107 190.5 L 103 183 L 89 182.5 L 96.5 173 Z " /><path fill="rgb(255,255,255)" stroke="rgb(255,255,255)" stroke-width="1" opacity="0.4980392156862745" d="M 122.5 173 L 127 176.5 Q 127.8 178.8 125.5 178 L 125.5 176 L 122.5 173 Z " /><path fill="rgb(255,255,255)" stroke="rgb(255,255,255)" stroke-width="1" opacity="0.4980392156862745" d="M 163 174 L 167 176.5 L 164 175.5 L 163.5 177 L 163 174 Z " /><path fill="rgb(255,255,255)" stroke="rgb(255,255,255)" stroke-width="1" opacity="0.4980392156862745" d="M 9.5 176 L 10 185.5 L 9 185.5 L 9.5 176 Z " /><path fill="rgb(255,255,255)" stroke="rgb(255,255,255)" stroke-width="1" opacity="0.4980392156862745" d="M 168.5 177 Q 171.6 178.4 171 183.5 L 170 183.5 L 168.5 177 Z " /><path fill="rgb(255,255,255)" stroke="rgb(255,255,255)" stroke-width="1" opacity="0.4980392156862745" d="M 121.5 178 L 124 178.5 L 118.5 180 L 118.5 179 L 121.5 178 Z " /><path fill="rgb(255,255,255)" stroke="rgb(255,255,255)" stroke-width="1" opacity="0.4980392156862745" d="M 114 180 L 117 180.5 L 114 182.5 L 112.5 188 L 112 185.5 L 114 180 Z " /><path fill="rgb(255,255,255)" stroke="rgb(255,255,255)" stroke-width="1" opacity="0.4980392156862745" d="M 163.5 180 L 164 182.5 L 163 182.5 L 163.5 180 Z " /><path fill="rgb(255,255,255)" stroke="rgb(255,255,255)" stroke-width="1" opacity="0.4980392156862745" d="M 194.5 180 L 195 184.5 L 194 184.5 L 194.5 180 Z " /><path fill="rgb(255,255,255)" stroke="rgb(255,255,255)" stroke-width="1" opacity="0.4980392156862745" d="M 398.5 182 L 399 192 L 386 191.5 L 398 191 L 398.5 182 Z " /><path fill="rgb(255,255,255)" stroke="rgb(255,255,255)" stroke-width="1" opacity="0.4980392156862745" d="M 161.5 186 L 158 190.5 L 152.5 199 L 152 197.5 L 161.5 186 Z " /><path fill="rgb(255,255,255)" stroke="rgb(255,255,255)" stroke-width="1" opacity="0.4980392156862745" d="M 176.5 186 L 177.5 188 L 176.5 186 Z " /><path fill="rgb(255,255,255)" stroke="rgb(255,255,255)" stroke-width="1" opacity="0.4980392156862745" d="M 193.5 186 L 194 188.5 L 193 188.5 L 193.5 186 Z " /><path fill="rgb(255,255,255)" stroke="rgb(255,255,255)" stroke-width="1" opacity="0.4980392156862745" d="M 260.5 187 L 261 194.5 L 263.5 197 L 267 199.5 L 262.5 201 L 262.5 200 Q 266.3 201 265 198 L 260 194.5 L 259.5 189 L 258 189.5 L 260.5 187 Z " /><path fill="rgb(255,255,255)" stroke="rgb(255,255,255)" stroke-width="1" opacity="0.4980392156862745" d="M 307.5 187 L 308 192.5 L 307 192.5 Q 308.5 188.1 305.5 189 L 303 190.5 L 307.5 187 Z " /><path fill="rgb(255,255,255)" stroke="rgb(255,255,255)" stroke-width="1" opacity="0.4980392156862745" d="M 179.5 188 L 190 197.5 L 191.5 194 L 192 195.5 L 189.5 200 L 179.5 188 Z " /><path fill="rgb(255,255,255)" stroke="rgb(255,255,255)" stroke-width="1" opacity="0.4980392156862745" d="M 207.5 188 L 208 192.5 L 207 192.5 L 207.5 188 Z " /><path fill="rgb(255,255,255)" stroke="rgb(255,255,255)" stroke-width="1" opacity="0.4980392156862745" d="M 294.5 189 L 295 191.5 L 294 191.5 L 294.5 189 Z " /><path fill="rgb(255,255,255)" stroke="rgb(255,255,255)" stroke-width="1" opacity="0.4980392156862745" d="M 192.5 190 L 193 192.5 L 192 192.5 L 192.5 190 Z " /><path fill="rgb(255,255,255)" stroke="rgb(255,255,255)" stroke-width="1" opacity="0.4980392156862745" d="M 250.5 190 L 255.5 191 L 257 190.5 Q 256.3 192.8 252.5 192 L 250.5 190 Z " /><path fill="rgb(255,255,255)" stroke="rgb(255,255,255)" stroke-width="1" opacity="0.4980392156862745" d="M 299.5 191 L 302 191.5 L 299.5 192 L 299.5 191 Z " /><path fill="rgb(255,255,255)" stroke="rgb(255,255,255)" stroke-width="1" opacity="0.4980392156862745" d="M 369.5 192 L 382 192.5 L 369.5 193 L 369.5 192 Z " /><path fill="rgb(255,255,255)" stroke="rgb(255,255,255)" stroke-width="1" opacity="0.4980392156862745" d="M 355.5 193 L 374 194.5 L 362.5 195 Q 361 192.5 355.5 194 L 355.5 193 Z " /><path fill="rgb(255,255,255)" stroke="rgb(255,255,255)" stroke-width="1" opacity="0.4980392156862745" d="M 206.5 194 L 207 197.5 L 206 197.5 L 206.5 194 Z " /><path fill="rgb(255,255,255)" stroke="rgb(255,255,255)" stroke-width="1" opacity="0.4980392156862745" d="M 307.5 195 L 313 199.5 L 309.5 197 L 307.5 195 Z " /><path fill="rgb(255,255,255)" stroke="rgb(255,255,255)" stroke-width="1" opacity="0.4980392156862745" d="M 377.5 195 L 389 195.5 L 377.5 196 L 377.5 195 Z " /><path fill="rgb(255,255,255)" stroke="rgb(255,255,255)" stroke-width="1" opacity="0.4980392156862745" d="M 296.5 196 L 295.5 198 L 296.5 196 Z " /><path fill="rgb(255,255,255)" stroke="rgb(255,255,255)" stroke-width="1" opacity="0.4980392156862745" d="M 393.5 196 L 399 196 L 399 209.5 L 398 209.5 L 398 197 L 393.5 197 L 393.5 196 Z " /><path fill="rgb(255,255,255)" stroke="rgb(255,255,255)" stroke-width="1" opacity="0.4980392156862745" d="M 249.5 197 L 248 199.5 L 247 201.5 Q 253.3 200.7 255 204.5 L 252.5 203 L 245 202.5 L 249.5 197 Z " /><path fill="rgb(255,255,255)" stroke="rgb(255,255,255)" stroke-width="1" opacity="0.4980392156862745" d="M 205.5 199 L 208 202.5 L 205 200.5 L 205.5 199 Z " /><path fill="rgb(255,255,255)" stroke="rgb(255,255,255)" stroke-width="1" opacity="0.4980392156862745" d="M 294.5 199 L 293.5 202 Q 300.5 200.5 300 203.5 L 304 208.5 L 302 207.5 L 298.5 203 Q 291.5 204.5 292 201.5 L 294.5 199 Z " /><path fill="rgb(255,255,255)" stroke="rgb(255,255,255)" stroke-width="1" opacity="0.4980392156862745" d="M 308.5 200 L 311 200.5 L 306 202 L 305.5 204 L 305 202.5 L 308.5 200 Z " /><path fill="rgb(255,255,255)" stroke="rgb(255,255,255)" stroke-width="1" opacity="0.4980392156862745" d="M 259 201 L 261 201.5 L 259 202.5 L 259 201 Z " /><path fill="rgb(255,255,255)" stroke="rgb(255,255,255)" stroke-width="1" opacity="0.4980392156862745" d="M 150.5 203 L 151 207.5 L 151 209.5 Q 150.3 211.8 152.5 211 L 160 217.5 L 158.5 217 L 152.5 212 L 150.5 212 L 148.5 213 L 149.5 210 L 145 209.5 L 150 208 L 150.5 203 Z " /><path fill="rgb(255,255,255)" stroke="rgb(255,255,255)" stroke-width="1" opacity="0.4980392156862745" d="M 209.5 203 Q 221.5 214.5 229 230.5 L 228 230.5 L 220 216.5 L 211 206.5 L 209.5 203 Z " /><path fill="rgb(255,255,255)" stroke="rgb(255,255,255)" stroke-width="1" opacity="0.4980392156862745" d="M 9.5 206 L 10 215.5 L 9 215.5 L 9.5 206 Z " /><path fill="rgb(255,255,255)" stroke="rgb(255,255,255)" stroke-width="1" opacity="0.4980392156862745" d="M 255.5 206 L 258 207 L 257.5 209 L 255.5 206 Z " /><path fill="rgb(255,255,255)" stroke="rgb(255,255,255)" stroke-width="1" opacity="0.4980392156862745" d="M 397.5 213 L 398 219.5 L 397 219.5 L 397.5 213 Z " /><path fill="rgb(255,255,255)" stroke="rgb(255,255,255)" stroke-width="1" opacity="0.4980392156862745" d="M 10.5 218 L 11 223.5 L 10 223.5 L 10.5 218 Z " /><path fill="rgb(255,255,255)" stroke="rgb(255,255,255)" stroke-width="1" opacity="0.4980392156862745" d="M 161.5 218 L 166 219.5 L 163.5 220 L 161.5 218 Z " /><path fill="rgb(255,255,255)" stroke="rgb(255,255,255)" stroke-width="1" opacity="0.4980392156862745" d="M 167.5 220 L 170 220.5 L 167.5 221 L 167.5 220 Z " /><path fill="rgb(255,255,255)" stroke="rgb(255,255,255)" stroke-width="1" opacity="0.4980392156862745" d="M 172.5 221 L 173 222.5 L 168.5 229 L 169 227.5 L 172.5 221 Z " /><path fill="rgb(255,255,255)" stroke="rgb(255,255,255)" stroke-width="1" opacity="0.4980392156862745" d="M 396.5 222 L 397 226.5 L 396 226.5 L 396.5 222 Z " /><path fill="rgb(255,255,255)" stroke="rgb(255,255,255)" stroke-width="1" opacity="0.4980392156862745" d="M 11.5 226 L 12 229.5 L 11 229.5 L 11.5 226 Z " /><path fill="rgb(255,255,255)" stroke="rgb(255,255,255)" stroke-width="1" opacity="0.4980392156862745" d="M 395.5 228 L 396 232.5 L 395 232.5 L 395.5 228 Z " /><path fill="rgb(255,255,255)" stroke="rgb(255,255,255)" stroke-width="1" opacity="0.4980392156862745" d="M 167.5 230 L 168 231.5 L 166.5 234 L 166 232.5 L 167.5 230 Z " /><path fill="rgb(255,255,255)" stroke="rgb(255,255,255)" stroke-width="1" opacity="0.4980392156862745" d="M 229.5 232 L 231 235.5 L 230 235.5 L 229.5 232 Z " /><path fill="rgb(255,255,255)" stroke="rgb(255,255,255)" stroke-width="1" opacity="0.4980392156862745" d="M 18.5 233 L 31 233.5 L 18.5 234 L 18.5 233 Z " /><path fill="rgb(255,255,255)" stroke="rgb(255,255,255)" stroke-width="1" opacity="0.4980392156862745" d="M 35.5 234 L 48 234.5 L 35.5 235 L 35.5 234 Z " /><path fill="rgb(255,255,255)" stroke="rgb(255,255,255)" stroke-width="1" opacity="0.4980392156862745" d="M 394.5 234 L 395 237.5 L 394 237.5 L 394.5 234 Z " /><path fill="rgb(255,255,255)" stroke="rgb(255,255,255)" stroke-width="1" opacity="0.4980392156862745" d="M 53.5 235 L 63 235.5 Q 57.4 238.4 47.5 237 L 47.5 236 Q 52.3 237.2 53.5 235 Z " /><path fill="rgb(255,255,255)" stroke="rgb(255,255,255)" stroke-width="1" opacity="0.4980392156862745" d="M 165.5 235 L 166 236.5 L 164.5 240 L 164 237.5 L 165.5 235 Z " /><path fill="rgb(255,255,255)" stroke="rgb(255,255,255)" stroke-width="1" opacity="0.4980392156862745" d="M 183.5 236 L 185 236.5 L 182 238.5 L 175.5 251 L 175 249.5 L 183.5 236 Z " /><path fill="rgb(255,255,255)" stroke="rgb(255,255,255)" stroke-width="1" opacity="0.4980392156862745" d="M 31.5 237 L 43 237.5 L 31.5 238 L 31.5 237 Z " /><path fill="rgb(255,255,255)" stroke="rgb(255,255,255)" stroke-width="1" opacity="0.4980392156862745" d="M 231.5 237 L 233 241.5 L 232 241.5 L 231.5 237 Z " /><path fill="rgb(255,255,255)" stroke="rgb(255,255,255)" stroke-width="1" opacity="0.4980392156862745" d="M 15.5 238 L 27 238.5 L 15.5 239 L 15.5 238 Z " /><path fill="rgb(255,255,255)" stroke="rgb(255,255,255)" stroke-width="1" opacity="0.4980392156862745" d="M 188.5 238 L 194 245.5 L 193 245.5 L 188.5 238 Z " /><path fill="rgb(255,255,255)" stroke="rgb(255,255,255)" stroke-width="1" opacity="0.4980392156862745" d="M 393.5 239 L 394 241.5 L 393 241.5 L 393.5 239 Z " /><path fill="rgb(255,255,255)" stroke="rgb(255,255,255)" stroke-width="1" opacity="0.4980392156862745" d="M 14.5 241 L 15 243.5 L 14 243.5 L 14.5 241 Z " /><path fill="rgb(255,255,255)" stroke="rgb(255,255,255)" stroke-width="1" opacity="0.4980392156862745" d="M 163.5 241 L 164 243.5 L 163 243.5 L 163.5 241 Z " /><path fill="rgb(255,255,255)" stroke="rgb(255,255,255)" stroke-width="1" opacity="0.4980392156862745" d="M 233.5 243 L 234 245.5 L 233 245.5 L 233.5 243 Z " /><path fill="rgb(255,255,255)" stroke="rgb(255,255,255)" stroke-width="1" opacity="0.4980392156862745" d="M 392.5 243 L 393 245.5 L 392 245.5 L 392.5 243 Z " /><path fill="rgb(255,255,255)" stroke="rgb(255,255,255)" stroke-width="1" opacity="0.4980392156862745" d="M 15.5 245 L 16 247.5 L 15 247.5 L 15.5 245 Z " /><path fill="rgb(255,255,255)" stroke="rgb(255,255,255)" stroke-width="1" opacity="0.4980392156862745" d="M 162.5 245 L 163 248.5 L 162 248.5 L 162.5 245 Z " /><path fill="rgb(255,255,255)" stroke="rgb(255,255,255)" stroke-width="1" opacity="0.4980392156862745" d="M 234.5 247 L 235 251.5 L 234 251.5 L 234.5 247 Z " /><path fill="rgb(255,255,255)" stroke="rgb(255,255,255)" stroke-width="1" opacity="0.4980392156862745" d="M 391.5 247 L 392 249.5 L 390.5 253 L 390 250.5 L 391.5 247 Z " /><path fill="rgb(255,255,255)" stroke="rgb(255,255,255)" stroke-width="1" opacity="0.4980392156862745" d="M 195.5 250 L 196 252.5 L 195 252.5 L 195.5 250 Z " /><path fill="rgb(255,255,255)" stroke="rgb(255,255,255)" stroke-width="1" opacity="0.4980392156862745" d="M 161.5 251 L 162 273.5 L 161 273.5 L 161.5 251 Z " /><path fill="rgb(255,255,255)" stroke="rgb(255,255,255)" stroke-width="1" opacity="0.4980392156862745" d="M 17.5 252 L 21 262.5 L 20 262.5 L 17 254.5 L 17.5 252 Z " /><path fill="rgb(255,255,255)" stroke="rgb(255,255,255)" stroke-width="1" opacity="0.4980392156862745" d="M 174.5 252 L 175 254.5 L 173.5 258 L 173 255.5 L 174.5 252 Z " /><path fill="rgb(255,255,255)" stroke="rgb(255,255,255)" stroke-width="1" opacity="0.4980392156862745" d="M 196.5 254 L 197 257.5 L 196 257.5 L 196.5 254 Z " /><path fill="rgb(255,255,255)" stroke="rgb(255,255,255)" stroke-width="1" opacity="0.4980392156862745" d="M 235.5 254 L 236 267.5 L 235 267.5 L 235.5 254 Z " /><path fill="rgb(255,255,255)" stroke="rgb(255,255,255)" stroke-width="1" opacity="0.4980392156862745" d="M 388.5 257 L 389 259 L 379 258.5 L 387.5 258 L 388.5 257 Z " /><path fill="rgb(255,255,255)" stroke="rgb(255,255,255)" stroke-width="1" opacity="0.4980392156862745" d="M 172.5 259 L 173 263.5 L 172 263.5 L 172.5 259 Z " /><path fill="rgb(255,255,255)" stroke="rgb(255,255,255)" stroke-width="1" opacity="0.4980392156862745" d="M 361.5 259 L 374 259.5 L 361.5 260 L 361.5 259 Z " /><path fill="rgb(255,255,255)" stroke="rgb(255,255,255)" stroke-width="1" opacity="0.4980392156862745" d="M 344.5 260 L 357 260.5 L 344.5 261 L 344.5 260 Z " /><path fill="rgb(255,255,255)" stroke="rgb(255,255,255)" stroke-width="1" opacity="0.4980392156862745" d="M 197.5 261 L 198 273.5 L 197 273.5 L 197.5 261 Z " /><path fill="rgb(255,255,255)" stroke="rgb(255,255,255)" stroke-width="1" opacity="0.4980392156862745" d="M 327.5 261 L 340 261.5 L 327.5 262 L 327.5 261 Z " /><path fill="rgb(255,255,255)" stroke="rgb(255,255,255)" stroke-width="1" opacity="0.4980392156862745" d="M 309.5 262 L 322 262.5 L 314.5 264 L 305.5 264 L 305.5 263 L 309.5 262 Z " /><path fill="rgb(255,255,255)" stroke="rgb(255,255,255)" stroke-width="1" opacity="0.4980392156862745" d="M 21.5 264 L 25 272.5 L 24 272.5 L 21.5 264 Z " /><path fill="rgb(255,255,255)" stroke="rgb(255,255,255)" stroke-width="1" opacity="0.4980392156862745" d="M 319.5 264 L 331 264.5 L 319.5 265 L 319.5 264 Z " /><path fill="rgb(255,255,255)" stroke="rgb(255,255,255)" stroke-width="1" opacity="0.4980392156862745" d="M 335.5 265 L 347 265.5 L 335.5 266 L 335.5 265 Z " /><path fill="rgb(255,255,255)" stroke="rgb(255,255,255)" stroke-width="1" opacity="0.4980392156862745" d="M 351.5 266 L 363 266.5 L 351.5 267 L 351.5 266 Z " /><path fill="rgb(255,255,255)" stroke="rgb(255,255,255)" stroke-width="1" opacity="0.4980392156862745" d="M 171.5 267 L 172 277.5 L 171 277.5 L 171.5 267 Z " /><path fill="rgb(255,255,255)" stroke="rgb(255,255,255)" stroke-width="1" opacity="0.4980392156862745" d="M 367.5 267 L 379 267.5 L 367.5 268 L 367.5 267 Z " /><path fill="rgb(255,255,255)" stroke="rgb(255,255,255)" stroke-width="1" opacity="0.4980392156862745" d="M 382.5 268 Q 385.8 266.9 385 269.5 L 383.5 272 L 383 270.5 L 383.5 269 L 382.5 268 Z " /><path fill="rgb(255,255,255)" stroke="rgb(255,255,255)" stroke-width="1" opacity="0.4980392156862745" d="M 234.5 270 L 235 275.5 L 234 275.5 L 234.5 270 Z " /><path fill="rgb(255,255,255)" stroke="rgb(255,255,255)" stroke-width="1" opacity="0.4980392156862745" d="M 382.5 273 L 383 274.5 L 373.5 292 L 374 290.5 L 382.5 273 Z " /><path fill="rgb(255,255,255)" stroke="rgb(255,255,255)" stroke-width="1" opacity="0.4980392156862745" d="M 25.5 274 Q 32.9 292.1 44 306.5 L 41 304.5 Q 31.1 290.5 25.5 274 Z " /><path fill="rgb(255,255,255)" stroke="rgb(255,255,255)" stroke-width="1" opacity="0.4980392156862745" d="M 162.5 276 L 163 280.5 L 162 280.5 L 162.5 276 Z " /><path fill="rgb(255,255,255)" stroke="rgb(255,255,255)" stroke-width="1" opacity="0.4980392156862745" d="M 196.5 276 L 197 281.5 L 196 281.5 L 196.5 276 Z " /><path fill="rgb(255,255,255)" stroke="rgb(255,255,255)" stroke-width="1" opacity="0.4980392156862745" d="M 233.5 277 L 234 280.5 L 233 280.5 L 233.5 277 Z " /><path fill="rgb(255,255,255)" stroke="rgb(255,255,255)" stroke-width="1" opacity="0.4980392156862745" d="M 172.5 281 L 173 284.5 L 172 287 L 166.5 288 L 166.5 287 Q 171.3 287.8 172 284.5 L 172.5 281 Z " /><path fill="rgb(255,255,255)" stroke="rgb(255,255,255)" stroke-width="1" opacity="0.4980392156862745" d="M 163.5 282 L 165 286.5 L 164 286.5 L 163.5 282 Z " /><path fill="rgb(255,255,255)" stroke="rgb(255,255,255)" stroke-width="1" opacity="0.4980392156862745" d="M 232.5 282 L 233 284.5 L 232 284.5 L 232.5 282 Z " /><path fill="rgb(255,255,255)" stroke="rgb(255,255,255)" stroke-width="1" opacity="0.4980392156862745" d="M 195.5 283 L 196 286.5 L 194.5 290 L 194 287.5 L 195.5 283 Z " /><path fill="rgb(255,255,255)" stroke="rgb(255,255,255)" stroke-width="1" opacity="0.4980392156862745" d="M 231.5 286 L 232 288.5 L 231 288.5 L 231.5 286 Z " /><path fill="rgb(255,255,255)" stroke="rgb(255,255,255)" stroke-width="1" opacity="0.4980392156862745" d="M 212.5 293 L 213 295.5 L 210.5 300 Q 209.3 297.8 208 300.5 L 203.5 308 L 204 306.5 L 212.5 293 Z " /><path fill="rgb(255,255,255)" stroke="rgb(255,255,255)" stroke-width="1" opacity="0.4980392156862745" d="M 229.5 293 L 230 295.5 L 225.5 307 L 225 305.5 L 229.5 293 Z " /><path fill="rgb(255,255,255)" stroke="rgb(255,255,255)" stroke-width="1" opacity="0.4980392156862745" d="M 372.5 293 L 372 294.5 L 370.5 297 L 371 295.5 L 372.5 293 Z " /><path fill="rgb(255,255,255)" stroke="rgb(255,255,255)" stroke-width="1" opacity="0.4980392156862745" d="M 192.5 294 L 193 295.5 L 191.5 298 L 191 296.5 L 192.5 294 Z " /><path fill="rgb(255,255,255)" stroke="rgb(255,255,255)" stroke-width="1" opacity="0.4980392156862745" d="M 369.5 298 L 369 299.5 L 356.5 317 L 359 313.5 L 369.5 298 Z " /><path fill="rgb(255,255,255)" stroke="rgb(255,255,255)" stroke-width="1" opacity="0.4980392156862745" d="M 190.5 299 L 190 300.5 L 187.5 305 L 188 303.5 L 190.5 299 Z " /><path fill="rgb(255,255,255)" stroke="rgb(255,255,255)" stroke-width="1" opacity="0.4980392156862745" d="M 209.5 301 L 210 302.5 L 206.5 312 L 206 309.5 L 209.5 301 Z " /><path fill="rgb(255,255,255)" stroke="rgb(255,255,255)" stroke-width="1" opacity="0.4980392156862745" d="M 44.5 308 L 52 309.5 L 45.5 310 L 44.5 308 Z " /><path fill="rgb(255,255,255)" stroke="rgb(255,255,255)" stroke-width="1" opacity="0.4980392156862745" d="M 202.5 309 L 202 310.5 L 196.5 322 L 196 320.5 L 202.5 309 Z " /><path fill="rgb(255,255,255)" stroke="rgb(255,255,255)" stroke-width="1" opacity="0.4980392156862745" d="M 56.5 310 L 69 310.5 L 56.5 311 L 56.5 310 Z " /><path fill="rgb(255,255,255)" stroke="rgb(255,255,255)" stroke-width="1" opacity="0.4980392156862745" d="M 184.5 310 L 185 311.5 L 183.5 314 L 183 312.5 L 184.5 310 Z " /><path fill="rgb(255,255,255)" stroke="rgb(255,255,255)" stroke-width="1" opacity="0.4980392156862745" d="M 73.5 311 L 87 311.5 L 73.5 312 L 73.5 311 Z " /><path fill="rgb(255,255,255)" stroke="rgb(255,255,255)" stroke-width="1" opacity="0.4980392156862745" d="M 223.5 311 L 224 312.5 L 221.5 318 L 221 316.5 L 223.5 311 Z " /><path fill="rgb(255,255,255)" stroke="rgb(255,255,255)" stroke-width="1" opacity="0.4980392156862745" d="M 91.5 312 L 104 312.5 L 91.5 313 L 91.5 312 Z " /><path fill="rgb(255,255,255)" stroke="rgb(255,255,255)" stroke-width="1" opacity="0.4980392156862745" d="M 108.5 313 L 120 313.5 Q 114.4 316.4 104.5 315 L 104.5 314 L 108.5 313 Z " /><path fill="rgb(255,255,255)" stroke="rgb(255,255,255)" stroke-width="1" opacity="0.4980392156862745" d="M 205.5 313 L 206 315.5 L 205 315.5 L 205.5 313 Z " /><path fill="rgb(255,255,255)" stroke="rgb(255,255,255)" stroke-width="1" opacity="0.4980392156862745" d="M 88.5 315 L 100 315.5 L 88.5 316 L 88.5 315 Z " /><path fill="rgb(255,255,255)" stroke="rgb(255,255,255)" stroke-width="1" opacity="0.4980392156862745" d="M 182.5 315 L 183 316.5 L 180.5 323 L 180 320.5 L 182.5 315 Z " /><path fill="rgb(255,255,255)" stroke="rgb(255,255,255)" stroke-width="1" opacity="0.4980392156862745" d="M 72.5 316 L 84 316.5 L 72.5 317 L 72.5 316 Z " /><path fill="rgb(255,255,255)" stroke="rgb(255,255,255)" stroke-width="1" opacity="0.4980392156862745" d="M 56.5 317 L 68 317.5 L 56.5 318 L 56.5 317 Z " /><path fill="rgb(255,255,255)" stroke="rgb(255,255,255)" stroke-width="1" opacity="0.4980392156862745" d="M 204.5 317 L 205 319.5 L 204 319.5 L 204.5 317 Z " /><path fill="rgb(255,255,255)" stroke="rgb(255,255,255)" stroke-width="1" opacity="0.4980392156862745" d="M 52.5 318 L 71.5 339 L 79 345.5 L 72.5 340 L 60 328.5 L 53 320.5 L 52.5 318 Z " /><path fill="rgb(255,255,255)" stroke="rgb(255,255,255)" stroke-width="1" opacity="0.4980392156862745" d="M 355.5 318 L 352 322.5 L 331.5 344 L 301.5 365 L 302.5 363 Q 330.9 347.4 351 323.5 L 355.5 318 Z " /><path fill="rgb(255,255,255)" stroke="rgb(255,255,255)" stroke-width="1" opacity="0.4980392156862745" d="M 203.5 321 L 204 324.5 L 203 324.5 L 203.5 321 Z " /><path fill="rgb(255,255,255)" stroke="rgb(255,255,255)" stroke-width="1" opacity="0.4980392156862745" d="M 219.5 322 L 220 323.5 L 217.5 329 L 217 327.5 L 219.5 322 Z " /><path fill="rgb(255,255,255)" stroke="rgb(255,255,255)" stroke-width="1" opacity="0.4980392156862745" d="M 194.5 325 L 195 326.5 L 193.5 329 L 193 327.5 L 194.5 325 Z " /><path fill="rgb(255,255,255)" stroke="rgb(255,255,255)" stroke-width="1" opacity="0.4980392156862745" d="M 202.5 326 L 203 330.5 L 202 330.5 L 202.5 326 Z " /><path fill="rgb(255,255,255)" stroke="rgb(255,255,255)" stroke-width="1" opacity="0.4980392156862745" d="M 178.5 327 L 179 329.5 L 178 329.5 L 178.5 327 Z " /><path fill="rgb(255,255,255)" stroke="rgb(255,255,255)" stroke-width="1" opacity="0.4980392156862745" d="M 177.5 331 L 178 333.5 L 177 333.5 L 177.5 331 Z " /><path fill="rgb(255,255,255)" stroke="rgb(255,255,255)" stroke-width="1" opacity="0.4980392156862745" d="M 201.5 332 L 202 336.5 L 201 336.5 L 201.5 332 Z " /><path fill="rgb(255,255,255)" stroke="rgb(255,255,255)" stroke-width="1" opacity="0.4980392156862745" d="M 215.5 333 L 216 335.5 L 214.5 339 L 214 336.5 L 215.5 333 Z " /><path fill="rgb(255,255,255)" stroke="rgb(255,255,255)" stroke-width="1" opacity="0.4980392156862745" d="M 176.5 335 L 177 338.5 L 176 338.5 L 176.5 335 Z " /><path fill="rgb(255,255,255)" stroke="rgb(255,255,255)" stroke-width="1" opacity="0.4980392156862745" d="M 200.5 339 L 201 345.5 L 200 345.5 L 200.5 339 Z " /><path fill="rgb(255,255,255)" stroke="rgb(255,255,255)" stroke-width="1" opacity="0.4980392156862745" d="M 175.5 340 L 176 343.5 L 175 343.5 L 175.5 340 Z " /><path fill="rgb(255,255,255)" stroke="rgb(255,255,255)" stroke-width="1" opacity="0.4980392156862745" d="M 188.5 342 L 189 344.5 L 188 344.5 L 188.5 342 Z " /><path fill="rgb(255,255,255)" stroke="rgb(255,255,255)" stroke-width="1" opacity="0.4980392156862745" d="M 212.5 343 L 213 345.5 L 212 345.5 L 212.5 343 Z " /><path fill="rgb(255,255,255)" stroke="rgb(255,255,255)" stroke-width="1" opacity="0.4980392156862745" d="M 80.5 346 L 83.5 350 L 80.5 346 Z " /><path fill="rgb(255,255,255)" stroke="rgb(255,255,255)" stroke-width="1" opacity="0.4980392156862745" d="M 174.5 346 L 175 349.5 L 174 349.5 L 174.5 346 Z " /><path fill="rgb(255,255,255)" stroke="rgb(255,255,255)" stroke-width="1" opacity="0.4980392156862745" d="M 187.5 346 L 188 348.5 L 187 348.5 L 187.5 346 Z " /><path fill="rgb(255,255,255)" stroke="rgb(255,255,255)" stroke-width="1" opacity="0.4980392156862745" d="M 211.5 347 L 212 350.5 L 211 350.5 L 211.5 347 Z " /><path fill="rgb(255,255,255)" stroke="rgb(255,255,255)" stroke-width="1" opacity="0.4980392156862745" d="M 199.5 348 L 200 356.5 L 199 356.5 L 199.5 348 Z " /><path fill="rgb(255,255,255)" stroke="rgb(255,255,255)" stroke-width="1" opacity="0.4980392156862745" d="M 85.5 350 L 87.5 353 L 85.5 350 Z " /><path fill="rgb(255,255,255)" stroke="rgb(255,255,255)" stroke-width="1" opacity="0.4980392156862745" d="M 186.5 351 L 187 354.5 L 186 354.5 L 186.5 351 Z " /><path fill="rgb(255,255,255)" stroke="rgb(255,255,255)" stroke-width="1" opacity="0.4980392156862745" d="M 173.5 352 L 174 356.5 L 173 356.5 L 173.5 352 Z " /><path fill="rgb(255,255,255)" stroke="rgb(255,255,255)" stroke-width="1" opacity="0.4980392156862745" d="M 210.5 352 L 211 356.5 L 210 356.5 L 210.5 352 Z " /><path fill="rgb(255,255,255)" stroke="rgb(255,255,255)" stroke-width="1" opacity="0.4980392156862745" d="M 89.5 353 L 103 362.5 L 101.5 362 L 91.5 356 L 89.5 353 Z " /><path fill="rgb(255,255,255)" stroke="rgb(255,255,255)" stroke-width="1" opacity="0.4980392156862745" d="M 185.5 356 L 186 361.5 L 185 361.5 L 185.5 356 Z " /><path fill="rgb(255,255,255)" stroke="rgb(255,255,255)" stroke-width="1" opacity="0.4980392156862745" d="M 209.5 358 L 210 368.5 L 209 368.5 L 209.5 358 Z " /><path fill="rgb(255,255,255)" stroke="rgb(255,255,255)" stroke-width="1" opacity="0.4980392156862745" d="M 172.5 359 L 173 364.5 L 172 364.5 L 172.5 359 Z " /><path fill="rgb(255,255,255)" stroke="rgb(255,255,255)" stroke-width="1" opacity="0.4980392156862745" d="M 198.5 360 L 199 370.5 L 198 371.5 L 198 387 L 237 386.5 L 236.5 385 L 241 387.5 L 230.5 389 L 229.5 388 L 197 388 L 197 370.5 L 198 369.5 L 198.5 360 Z " /><path fill="rgb(255,255,255)" stroke="rgb(255,255,255)" stroke-width="1" opacity="0.4980392156862745" d="M 104.5 363 L 110 366.5 L 108.5 366 Q 104.5 365.5 104.5 363 Z " /><path fill="rgb(255,255,255)" stroke="rgb(255,255,255)" stroke-width="1" opacity="0.4980392156862745" d="M 184.5 364 L 186 376.5 L 185 376.5 L 184 374.5 L 184.5 364 Z " /><path fill="rgb(255,255,255)" stroke="rgb(255,255,255)" stroke-width="1" opacity="0.4980392156862745" d="M 299.5 365 L 298.5 367 L 276.5 377 L 276.5 376 L 299.5 365 Z " /><path fill="rgb(255,255,255)" stroke="rgb(255,255,255)" stroke-width="1" opacity="0.4980392156862745" d="M 171.5 367 L 172 373.5 L 170.5 376 L 170 374.5 L 171.5 367 Z " /><path fill="rgb(255,255,255)" stroke="rgb(255,255,255)" stroke-width="1" opacity="0.4980392156862745" d="M 115.5 369 L 118 370.5 L 116.5 371 L 115.5 369 Z " /><path fill="rgb(255,255,255)" stroke="rgb(255,255,255)" stroke-width="1" opacity="0.4980392156862745" d="M 209.5 370 L 212 371.5 L 210.5 374 L 205 378.5 L 207.5 379 L 210 377.5 Q 209.5 380.5 205.5 380 L 204 378.5 L 209.5 373 Q 212.1 373.7 211 371 L 209.5 370 Z " /><path fill="rgb(255,255,255)" stroke="rgb(255,255,255)" stroke-width="1" opacity="0.4980392156862745" d="M 123.5 373 L 129 375.5 L 127.5 376 L 123.5 374 L 123.5 373 Z " /><path fill="rgb(255,255,255)" stroke="rgb(255,255,255)" stroke-width="1" opacity="0.4980392156862745" d="M 213.5 374 L 217 375.5 L 211 380.5 Q 210.2 383.1 213.5 382 L 219.5 377 Q 224.5 379.5 219.5 382 Q 216.9 381.3 218 384 Q 223.1 384.8 224.5 380 L 220.5 385 Q 215.7 386.7 217 382.5 L 221 379.5 Q 219.8 376.7 218.5 379 L 213.5 383 L 210 383 Q 209.3 379.2 212.5 378 L 216 375.5 L 213.5 375 L 211 376.5 L 213.5 374 Z " /><path fill="rgb(255,255,255)" stroke="rgb(255,255,255)" stroke-width="1" opacity="0.4980392156862745" d="M 130.5 376 L 134 377.5 L 132.5 378 L 130.5 376 Z " /><path fill="rgb(255,255,255)" stroke="rgb(255,255,255)" stroke-width="1" opacity="0.4980392156862745" d="M 169.5 377 L 170 378.5 L 167.5 384 L 167 382.5 L 169.5 377 Z " /><path fill="rgb(255,255,255)" stroke="rgb(255,255,255)" stroke-width="1" opacity="0.4980392156862745" d="M 273.5 377 L 275 377.5 L 268.5 380 L 268.5 379 L 273.5 377 Z " /><path fill="rgb(255,255,255)" stroke="rgb(255,255,255)" stroke-width="1" opacity="0.4980392156862745" d="M 135.5 378 L 149 382.5 L 146.5 383 L 135.5 379 L 135.5 378 Z " /><path fill="rgb(255,255,255)" stroke="rgb(255,255,255)" stroke-width="1" opacity="0.4980392156862745" d="M 177.5 379 L 177.5 382 Q 174.5 380.5 177.5 379 Z " /><path fill="rgb(255,255,255)" stroke="rgb(255,255,255)" stroke-width="1" opacity="0.4980392156862745" d="M 185.5 379 Q 188.8 377.9 188 380.5 Q 190.3 381.8 187.5 383 L 181 385.5 L 185 386.5 L 181.5 387 Q 178 385 182.5 383 L 188 381.5 L 185.5 380 L 179.5 382 L 179.5 381 L 185.5 379 Z " /><path fill="rgb(255,255,255)" stroke="rgb(255,255,255)" stroke-width="1" opacity="0.4980392156862745" d="M 226.5 381 L 231 382.5 L 228.5 383 L 226.5 381 Z " /><path fill="rgb(255,255,255)" stroke="rgb(255,255,255)" stroke-width="1" opacity="0.4980392156862745" d="M 258.5 382 L 261 382.5 L 255.5 384 L 255.5 383 L 258.5 382 Z " /><path fill="rgb(255,255,255)" stroke="rgb(255,255,255)" stroke-width="1" opacity="0.4980392156862745" d="M 150.5 383 L 161 385.5 L 157.5 386 L 150.5 384 L 150.5 383 Z " /><path fill="rgb(255,255,255)" stroke="rgb(255,255,255)" stroke-width="1" opacity="0.4980392156862745" d="M 232.5 383 L 235 384.5 L 233.5 384 L 232.5 383 Z " /><path fill="rgb(255,255,255)" stroke="rgb(255,255,255)" stroke-width="1" opacity="0.4980392156862745" d="M 189.5 384 L 192 385.5 L 190.5 385 L 189.5 384 Z " /><path fill="rgb(255,255,255)" stroke="rgb(255,255,255)" stroke-width="1" opacity="0.4980392156862745" d="M 251.5 384 L 254 384.5 L 251.5 385 L 251.5 384 Z " /><path fill="rgb(255,255,255)" stroke="rgb(255,255,255)" stroke-width="1" opacity="0.4980392156862745" d="M 166.5 385 L 172 387.5 L 167 388 L 166.5 385 Z " /><path fill="rgb(255,255,255)" stroke="rgb(255,255,255)" stroke-width="1" opacity="0.4980392156862745" d="M 247.5 385 L 250 385.5 L 247.5 386 L 247.5 385 Z " /><path fill="rgb(255,255,255)" stroke="rgb(255,255,255)" stroke-width="1" opacity="0.4980392156862745" d="M 162.5 386 L 165 386.5 L 162.5 387 L 162.5 386 Z " /><path fill="rgb(255,255,255)" stroke="rgb(255,255,255)" stroke-width="1" opacity="0.4980392156862745" d="M 242.5 386 L 246 386.5 L 242.5 387 L 242.5 386 Z " /><path fill="rgb(255,255,255)" stroke="rgb(255,255,255)" stroke-width="1" opacity="0.4980392156862745" d="M 189.5 387 L 192 387.5 L 186.5 390 L 187.5 388 L 189.5 387 Z " /><path fill="rgb(255,255,255)" stroke="rgb(255,255,255)" stroke-width="1" opacity="0.4980392156862745" d="M 193.5 389 L 197.5 390 Q 198.8 387.7 200 390.5 L 195.5 391 L 193.5 389 Z " /><path fill="rgb(255,255,255)" stroke="rgb(255,255,255)" stroke-width="1" opacity="1" d="M 194.5 1 L 225.5 2 L 256.5 8 Q 285.6 16.4 308 31.5 L 300.5 33 L 266.5 34 L 261 35.5 L 319.5 39 L 347 63.5 Q 369.8 88.2 384 121.5 L 395 157.5 L 395 162.5 L 397 169.5 L 397 177.5 L 398 178.5 L 398 191 L 355 193.5 L 362.5 195 L 392.5 196 L 398 197 L 398 212.5 L 397 213.5 L 397 221.5 L 396 222.5 L 395 233.5 L 390 253.5 L 387.5 258 L 361.5 259 L 360.5 260 L 344.5 260 L 343.5 261 L 327.5 261 L 326.5 262 L 309.5 262 L 305 263.5 L 318.5 264 L 319.5 265 L 334.5 265 L 335.5 266 L 350.5 266 L 351.5 267 L 366.5 267 L 367.5 268 L 381.5 268 L 384 269.5 Q 365.4 313.9 331.5 343 Q 310.2 361.7 282.5 374 L 261.5 382 L 238.5 387 L 233.5 383 L 224.5 380 Q 223.1 384.8 218 384 Q 216.9 381.3 219.5 382 Q 224.5 379.5 219.5 377 L 213.5 382 L 211 382 L 212.5 379 L 217 375.5 L 213.5 374 L 207.5 379 L 205.5 379 L 209.5 374 L 212 372.5 L 210.5 370 L 209 369.5 L 210 368.5 L 210 357.5 L 213 342.5 L 227 304.5 L 234 280.5 L 235 268.5 L 236 267.5 L 236 254.5 L 233 239.5 L 228 227.5 Q 220.3 213.7 209.5 203 L 206 200.5 L 209 184.5 L 209 165.5 L 208 164.5 L 208 155.5 L 205 140.5 L 201.5 137 L 197.5 136 L 193 139.5 L 192 144.5 L 195 157.5 L 195 179.5 L 192 193.5 L 189.5 198 Q 182.8 187.8 171 184 L 171 180.5 L 169 177 L 163 174 L 164 179.5 L 162 185.5 L 152 197.5 L 150 208 L 145 209.5 L 150 210.5 L 148.5 213 L 152.5 212 Q 158.3 221.2 172 221 Q 165.3 231 162 245.5 Q 163.3 250.2 161 251.5 L 161 273.5 L 164 287 L 169.5 288 L 172 287 L 173 281.5 L 172 280.5 L 172 264.5 L 175 251.5 L 183.5 237 Q 189.1 237.5 191 241.5 L 194 246.5 L 197 258.5 L 197 275.5 L 193 293.5 L 183 312.5 L 178 327.5 L 173 352.5 L 171 373.5 L 166 385.5 L 166.5 387 Q 134.9 380.6 110.5 367 Q 82.1 351.4 61 328.5 L 53 318.5 L 83.5 317 L 84.5 316 L 99.5 316 L 100.5 315 L 115.5 315 L 120 313.5 L 87.5 312 L 86.5 311 L 69.5 311 L 68.5 310 L 52.5 310 Q 51 307.5 45.5 309 L 44 307.5 Q 23.1 278.6 14 239 L 42.5 238 L 43.5 237 L 58.5 237 L 63 235.5 L 48.5 235 L 47.5 234 L 31.5 234 L 30.5 233 L 13.5 233 L 12 231.5 L 11 218.5 L 10 217.5 L 10 206.5 L 9 205.5 L 9 186.5 L 10 185.5 L 10 174.5 L 11 173.5 L 12 160.5 L 17 139.5 L 26 115.5 L 32.5 104 L 71.5 102 L 72.5 101 L 87.5 101 L 88.5 100 L 103.5 100 L 106 98.5 L 38 95 Q 52.5 68.4 75.5 49 Q 98.2 28.7 128.5 16 L 144.5 10 L 163.5 5 L 180.5 3 L 181.5 2 L 193.5 2 L 194.5 1 Z M 194 62 L 188 76 L 187 77 L 173 81 L 184 91 Q 185 100 183 106 L 197 98 L 210 103 L 211 104 L 208 92 L 208 88 L 217 76 L 201 75 L 194 62 Z M 288 65 L 283 69 L 277 67 L 274 68 L 276 72 L 276 76 L 272 81 L 280 81 L 285 87 L 287 79 L 294 78 L 290 74 L 288 73 L 288 65 Z M 149 93 L 144 97 L 136 95 L 138 101 L 138 103 L 134 108 L 142 108 L 144 113 L 147 114 L 148 107 L 155 106 L 156 105 L 150 101 L 150 94 L 149 93 Z M 251 118 L 243 124 L 232 121 L 235 130 L 234 134 L 229 140 L 240 140 L 246 148 L 249 138 L 257 136 Q 260 137 259 134 L 255 132 L 251 129 L 251 118 Z M 321 139 L 316 143 L 308 141 L 310 148 L 306 153 Q 305 156 313 154 L 318 160 L 320 153 L 327 151 L 321 146 L 322 144 Q 324 138 321 139 Z M 116 156 L 107 163 L 93 159 L 97 172 L 89 183 L 103 183 L 111 194 L 114 183 L 125 178 Q 128 179 127 177 L 119 170 L 117 170 L 117 157 L 116 156 Z M 261 187 L 256 191 L 249 189 L 247 190 L 250 197 L 245 203 L 253 203 L 258 209 L 259 204 L 262 201 L 267 200 L 264 197 L 261 195 L 261 187 Z M 308 187 L 303 191 L 296 190 L 294 190 L 296 196 L 292 202 Q 291 204 299 203 L 304 209 L 306 202 L 313 200 L 307 195 L 308 193 L 308 187 Z " /><path fill="rgb(255,255,255)" stroke="rgb(255,255,255)" stroke-width="1" opacity="1" d="M 209.5 299 L 210 300.5 L 206 309.5 L 201 332.5 L 198 369.5 L 197 370.5 L 197 388 L 230 388.5 L 198.5 389 L 195.5 390 L 193.5 389 Q 192.2 391.2 187.5 390 L 187.5 389 L 192 388 L 190.5 384 Q 187.6 386.6 181.5 386 L 182.5 384 L 189 381.5 L 188 379 L 178.5 382 Q 175.5 380.5 178.5 379 L 186 377 L 185 374.5 L 185 362.5 L 186 361.5 L 187 349.5 L 193 329.5 Q 199.3 312.3 209.5 299 Z " /><path fill="rgb(0,0,0)" stroke="rgb(0,0,0)" stroke-width="1" opacity="0" d="M 0 0 L 406 0 L 406 396 L 0 396 L 0 0 Z M 185 1 L 156 6 L 129 15 Q 98 28 76 48 Q 52 68 37 95 L 41 96 L 75 97 L 76 98 L 92 98 L 92 100 L 33 103 Q 22 119 16 141 L 11 162 L 10 176 L 9 177 L 9 216 L 12 233 L 19 234 L 53 236 L 47 237 L 16 238 L 13 240 Q 23 280 44 309 L 46 310 L 56 310 L 57 311 L 73 311 L 74 312 L 91 312 L 92 313 L 108 314 L 104 315 L 57 317 L 52 319 L 60 329 Q 80 350 106 365 L 138 380 L 168 388 L 172 388 L 167 386 L 172 374 L 174 351 L 179 327 Q 184 309 193 296 L 196 287 L 197 275 L 198 274 L 197 255 L 192 242 Q 189 237 184 236 L 175 250 L 171 268 L 172 285 Q 171 288 165 287 L 162 276 L 162 250 L 163 245 Q 166 230 173 221 L 161 218 L 151 211 L 150 209 L 153 198 L 164 183 L 165 175 L 168 177 L 170 181 L 170 184 L 179 188 L 190 200 L 193 193 L 196 178 L 196 161 L 195 160 L 193 141 Q 194 136 201 137 L 205 144 L 207 162 L 208 163 L 208 188 L 205 201 L 209 203 Q 219 214 227 228 L 233 243 L 235 253 L 235 270 L 234 271 L 233 282 Q 225 311 214 337 L 209 359 L 209 371 L 211 371 Q 212 374 210 373 L 204 379 L 206 380 L 208 380 L 214 375 L 216 376 L 213 378 Q 209 379 210 383 L 214 383 L 219 379 Q 220 377 221 380 L 219 381 L 217 385 Q 223 386 225 381 L 232 383 L 237 387 L 198 387 L 198 372 L 199 371 L 199 358 L 200 357 L 201 338 L 206 313 L 213 296 L 213 293 Q 201 308 193 328 L 187 347 L 185 357 L 185 364 L 184 365 Q 183 373 185 377 L 178 379 Q 175 381 178 382 Q 183 383 186 380 L 188 382 L 183 383 Q 178 385 182 387 L 189 385 L 192 387 L 186 390 L 191 391 L 193 390 L 200 391 L 199 390 L 235 389 L 258 384 L 273 379 Q 306 366 332 344 Q 367 314 385 268 L 379 267 L 364 267 L 363 266 L 348 266 L 347 265 L 315 264 L 323 262 L 340 262 L 341 261 L 357 261 L 358 260 L 389 259 L 397 227 L 398 211 L 399 210 L 399 196 L 365 194 L 399 192 L 398 172 L 394 150 L 384 120 Q 370 87 347 63 L 320 38 L 306 38 L 305 37 L 273 36 L 280 34 L 296 34 L 297 33 L 310 33 Q 287 16 256 7 L 224 1 L 185 1 Z " /><path fill="rgb(0,0,0)" stroke="rgb(0,0,0)" stroke-width="1" opacity="0" d="M 193.5 64 L 201 76 Q 209.9 74.9 216 77.5 L 207 87.5 L 207 90.5 L 210 102 L 196.5 97 L 184.5 105 L 184 99.5 L 185 98.5 L 185 89 L 174 80.5 L 186.5 78 L 189 75.5 L 193.5 64 Z " /><path fill="rgb(0,0,0)" stroke="rgb(0,0,0)" stroke-width="1" opacity="0" d="M 287.5 66 L 287 67.5 Q 285.8 73.8 289.5 75 L 292 76.5 L 286 79 L 285 85 Q 282.3 86.1 283 83.5 L 281 80 L 274.5 80 L 274 78.5 Q 278 77.5 277 71.5 L 276 68 L 282.5 70 L 287.5 66 Z " /><path fill="rgb(0,0,0)" stroke="rgb(0,0,0)" stroke-width="1" opacity="0" d="M 148.5 94 L 149 100.5 L 150.5 102 L 154 104.5 L 147 108.5 L 145.5 113 L 143 108 L 135 107.5 L 139 102.5 L 139 100.5 L 137 96.5 L 139.5 96 L 143.5 98 L 148.5 94 Z " /><path fill="rgb(0,0,0)" stroke="rgb(0,0,0)" stroke-width="1" opacity="0" d="M 249.5 120 L 250 130 L 257 134.5 L 248 138 L 245.5 147 L 239.5 139 L 231.5 139 L 231 137.5 L 236 131.5 L 236 129.5 L 233 122.5 L 234.5 122 L 242.5 125 L 249.5 120 Z " /><path fill="rgb(0,0,0)" stroke="rgb(0,0,0)" stroke-width="1" opacity="0" d="M 320.5 140 L 321 146.5 L 323.5 149 L 326 150.5 L 319 153.5 L 317.5 159 L 313.5 154 Q 306.5 155.5 307 152.5 L 311 147.5 L 309 142 L 315.5 144 L 320.5 140 Z " /><path fill="rgb(0,0,0)" stroke="rgb(0,0,0)" stroke-width="1" opacity="0" d="M 115.5 157 L 116 169.5 L 117.5 171 L 126 176.5 L 124.5 178 L 114 180 L 111 192 L 108 190.5 L 102.5 182 L 91.5 182 L 91 180.5 L 98 171.5 L 94 160 L 106.5 164 L 115.5 157 Z " /><path fill="rgb(0,0,0)" stroke="rgb(0,0,0)" stroke-width="1" opacity="0" d="M 259.5 189 Q 258.8 196.2 263.5 198 Q 266.1 197.3 265 200 L 259 201 L 258 207 L 255 205.5 L 252.5 202 L 247 201.5 L 250 197.5 L 250 194.5 L 248 190.5 L 249.5 190 Q 250.9 192.6 255.5 192 L 259.5 189 Z " /><path fill="rgb(0,0,0)" stroke="rgb(0,0,0)" stroke-width="1" opacity="0" d="M 305.5 189 Q 308.5 188.5 307 195.5 L 312 199.5 L 305 202.5 L 303.5 208 L 300 202 L 293 201.5 L 297 196.5 L 295 190.5 L 296.5 191 L 301.5 192 L 305.5 189 Z " /></svg>