<svg width="663" height="191" version="1.1" xmlns="http://www.w3.org/2000/svg" desc="Created with imagetracer.js version 1.2.6" ><path fill="rgb(0,0,0)" stroke="rgb(0,0,0)" stroke-width="1" opacity="0.7058823529411765" d="M 10.5 33 L 11 137.5 L 10 137.5 L 10.5 33 Z " /><path fill="rgb(0,0,0)" stroke="rgb(0,0,0)" stroke-width="1" opacity="0.7058823529411765" d="M 37.5 33 L 38 75.5 L 37 75.5 L 37.5 33 Z " /><path fill="rgb(0,0,0)" stroke="rgb(0,0,0)" stroke-width="1" opacity="0.7058823529411765" d="M 107.5 33 L 108 137.5 L 107 137.5 L 107.5 33 Z " /><path fill="rgb(0,0,0)" stroke="rgb(0,0,0)" stroke-width="1" opacity="0.7058823529411765" d="M 301.5 33 L 305 33.5 L 301.5 34 L 301.5 33 Z " /><path fill="rgb(0,0,0)" stroke="rgb(0,0,0)" stroke-width="1" opacity="0.7058823529411765" d="M 351.5 33 L 352 137.5 L 351 137.5 L 351.5 33 Z " /><path fill="rgb(0,0,0)" stroke="rgb(0,0,0)" stroke-width="1" opacity="0.7058823529411765" d="M 378.5 33 L 379 137.5 L 378 137.5 L 378.5 33 Z " /><path fill="rgb(0,0,0)" stroke="rgb(0,0,0)" stroke-width="1" opacity="0.7058823529411765" d="M 558.5 35 L 563 35.5 L 558.5 36 L 558.5 35 Z " /><path fill="rgb(0,0,0)" stroke="rgb(0,0,0)" stroke-width="1" opacity="0.7058823529411765" d="M 565.5 36 L 567.5 39 L 565.5 36 Z " /><path fill="rgb(0,0,0)" stroke="rgb(0,0,0)" stroke-width="1" opacity="0.7058823529411765" d="M 549.5 39 L 548.5 41 L 549.5 39 Z " /><path fill="rgb(0,0,0)" stroke="rgb(0,0,0)" stroke-width="1" opacity="0.7058823529411765" d="M 551.5 41 L 545.5 48 L 551.5 41 Z " /><path fill="rgb(0,0,0)" stroke="rgb(0,0,0)" stroke-width="1" opacity="0.7058823529411765" d="M 568.5 41 L 569 46.5 L 568 46.5 L 568.5 41 Z " /><path fill="rgb(0,0,0)" stroke="rgb(0,0,0)" stroke-width="1" opacity="0.7058823529411765" d="M 325.5 42 L 327.5 45 L 325.5 42 Z " /><path fill="rgb(0,0,0)" stroke="rgb(0,0,0)" stroke-width="1" opacity="0.7058823529411765" d="M 523.5 43 L 525.5 46 L 523.5 43 Z " /><path fill="rgb(0,0,0)" stroke="rgb(0,0,0)" stroke-width="1" opacity="0.7058823529411765" d="M 541.5 47 L 540.5 49 L 541.5 47 Z " /><path fill="rgb(0,0,0)" stroke="rgb(0,0,0)" stroke-width="1" opacity="0.7058823529411765" d="M 517.5 48 L 519 48.5 L 516.5 50 L 517.5 48 Z " /><path fill="rgb(0,0,0)" stroke="rgb(0,0,0)" stroke-width="1" opacity="0.7058823529411765" d="M 543.5 50 L 542.5 52 L 543.5 50 Z " /><path fill="rgb(0,0,0)" stroke="rgb(0,0,0)" stroke-width="1" opacity="0.7058823529411765" d="M 512.5 53 L 511.5 55 L 512.5 53 Z " /><path fill="rgb(0,0,0)" stroke="rgb(0,0,0)" stroke-width="1" opacity="0.7058823529411765" d="M 541.5 53 L 540.5 55 L 541.5 53 Z " /><path fill="rgb(0,0,0)" stroke="rgb(0,0,0)" stroke-width="1" opacity="0.7058823529411765" d="M 271.5 54 L 272 74.5 L 271 74.5 L 271.5 54 Z " /><path fill="rgb(0,0,0)" stroke="rgb(0,0,0)" stroke-width="1" opacity="0.7058823529411765" d="M 332.5 54 L 333 56.5 L 332 56.5 L 332.5 54 Z " /><path fill="rgb(0,0,0)" stroke="rgb(0,0,0)" stroke-width="1" opacity="0.7058823529411765" d="M 421.5 55 L 422 137.5 L 421 137.5 L 421.5 55 Z " /><path fill="rgb(0,0,0)" stroke="rgb(0,0,0)" stroke-width="1" opacity="0.7058823529411765" d="M 448.5 55 L 449 137.5 L 448 137.5 L 448.5 55 Z " /><path fill="rgb(0,0,0)" stroke="rgb(0,0,0)" stroke-width="1" opacity="0.7058823529411765" d="M 301.5 56 L 303.5 59 L 301.5 56 Z " /><path fill="rgb(0,0,0)" stroke="rgb(0,0,0)" stroke-width="1" opacity="0.7058823529411765" d="M 521.5 59 L 520.5 61 L 521.5 59 Z " /><path fill="rgb(0,0,0)" stroke="rgb(0,0,0)" stroke-width="1" opacity="0.7058823529411765" d="M 304.5 60 L 305 62.5 L 304 62.5 L 304.5 60 Z " /><path fill="rgb(0,0,0)" stroke="rgb(0,0,0)" stroke-width="1" opacity="0.7058823529411765" d="M 522.5 61 L 520.5 64 L 522.5 61 Z " /><path fill="rgb(0,0,0)" stroke="rgb(0,0,0)" stroke-width="1" opacity="0.7058823529411765" d="M 332.5 62 L 333 64.5 L 332 64.5 L 332.5 62 Z " /><path fill="rgb(0,0,0)" stroke="rgb(0,0,0)" stroke-width="1" opacity="0.7058823529411765" d="M 557.5 70 L 556.5 72 L 557.5 70 Z " /><path fill="rgb(0,0,0)" stroke="rgb(0,0,0)" stroke-width="1" opacity="0.7058823529411765" d="M 293.5 74 L 297 74.5 L 293.5 75 L 293.5 74 Z " /><path fill="rgb(0,0,0)" stroke="rgb(0,0,0)" stroke-width="1" opacity="0.7058823529411765" d="M 327.5 74 L 324.5 78 L 327.5 74 Z " /><path fill="rgb(0,0,0)" stroke="rgb(0,0,0)" stroke-width="1" opacity="0.7058823529411765" d="M 554.5 74 L 553.5 76 L 554.5 74 Z " /><path fill="rgb(0,0,0)" stroke="rgb(0,0,0)" stroke-width="1" opacity="0.7058823529411765" d="M 550.5 75 L 549.5 77 L 550.5 75 Z " /><path fill="rgb(0,0,0)" stroke="rgb(0,0,0)" stroke-width="1" opacity="0.7058823529411765" d="M 497.5 77 L 498 79.5 L 497 79.5 L 497.5 77 Z " /><path fill="rgb(0,0,0)" stroke="rgb(0,0,0)" stroke-width="1" opacity="0.7058823529411765" d="M 551.5 78 L 550.5 80 L 551.5 78 Z " /><path fill="rgb(0,0,0)" stroke="rgb(0,0,0)" stroke-width="1" opacity="0.7058823529411765" d="M 572.5 79 L 569.5 83 L 572.5 79 Z " /><path fill="rgb(0,0,0)" stroke="rgb(0,0,0)" stroke-width="1" opacity="0.7058823529411765" d="M 316.5 81 L 318 81.5 L 315.5 83 L 316.5 81 Z " /><path fill="rgb(0,0,0)" stroke="rgb(0,0,0)" stroke-width="1" opacity="0.7058823529411765" d="M 546.5 81 L 545.5 83 L 546.5 81 Z " /><path fill="rgb(0,0,0)" stroke="rgb(0,0,0)" stroke-width="1" opacity="0.7058823529411765" d="M 577.5 81 L 582 81.5 L 577.5 82 L 577.5 81 Z " /><path fill="rgb(0,0,0)" stroke="rgb(0,0,0)" stroke-width="1" opacity="0.7058823529411765" d="M 530.5 82 L 531 84.5 L 530 84.5 L 530.5 82 Z " /><path fill="rgb(0,0,0)" stroke="rgb(0,0,0)" stroke-width="1" opacity="0.7058823529411765" d="M 548.5 82 L 546.5 85 L 548.5 82 Z " /><path fill="rgb(0,0,0)" stroke="rgb(0,0,0)" stroke-width="1" opacity="0.7058823529411765" d="M 574.5 82 L 571.5 86 L 574.5 82 Z " /><path fill="rgb(0,0,0)" stroke="rgb(0,0,0)" stroke-width="1" opacity="0.7058823529411765" d="M 583.5 82 L 585.5 85 L 583.5 82 Z " /><path fill="rgb(0,0,0)" stroke="rgb(0,0,0)" stroke-width="1" opacity="0.7058823529411765" d="M 602.5 82 L 605 82.5 L 602.5 83 L 602.5 82 Z " /><path fill="rgb(0,0,0)" stroke="rgb(0,0,0)" stroke-width="1" opacity="0.7058823529411765" d="M 589.5 84 L 590.5 86 L 589.5 84 Z " /><path fill="rgb(0,0,0)" stroke="rgb(0,0,0)" stroke-width="1" opacity="0.7058823529411765" d="M 543.5 85 L 542.5 87 L 543.5 85 Z " /><path fill="rgb(0,0,0)" stroke="rgb(0,0,0)" stroke-width="1" opacity="0.7058823529411765" d="M 602.5 85 L 606 86.5 L 604.5 86 Q 600 85.5 599.5 89 L 599 86.5 Q 600.8 88.1 602.5 85 Z " /><path fill="rgb(0,0,0)" stroke="rgb(0,0,0)" stroke-width="1" opacity="0.7058823529411765" d="M 325.5 86 L 326.5 88 L 325.5 86 Z " /><path fill="rgb(0,0,0)" stroke="rgb(0,0,0)" stroke-width="1" opacity="0.7058823529411765" d="M 529.5 87 L 530 89.5 L 529 89.5 L 529.5 87 Z " /><path fill="rgb(0,0,0)" stroke="rgb(0,0,0)" stroke-width="1" opacity="0.7058823529411765" d="M 495.5 88 L 496 90.5 L 495 90.5 L 495.5 88 Z " /><path fill="rgb(0,0,0)" stroke="rgb(0,0,0)" stroke-width="1" opacity="0.7058823529411765" d="M 500.5 89 L 501 92 L 504 92.5 L 500 93 L 500.5 89 Z " /><path fill="rgb(0,0,0)" stroke="rgb(0,0,0)" stroke-width="1" opacity="0.7058823529411765" d="M 329.5 90 L 331.5 93 L 329.5 90 Z " /><path fill="rgb(0,0,0)" stroke="rgb(0,0,0)" stroke-width="1" opacity="0.7058823529411765" d="M 523.5 90 L 524 92.5 L 523 92.5 L 523.5 90 Z " /><path fill="rgb(0,0,0)" stroke="rgb(0,0,0)" stroke-width="1" opacity="0.7058823529411765" d="M 539.5 90 L 542 90.5 L 534.5 97 L 534.5 96 L 536 95.5 L 535 94.5 L 539.5 90 Z " /><path fill="rgb(0,0,0)" stroke="rgb(0,0,0)" stroke-width="1" opacity="0.7058823529411765" d="M 606.5 90 L 607 102.5 L 606 102.5 L 606.5 90 Z " /><path fill="rgb(0,0,0)" stroke="rgb(0,0,0)" stroke-width="1" opacity="0.7058823529411765" d="M 578.5 91 L 577.5 93 L 578.5 91 Z " /><path fill="rgb(0,0,0)" stroke="rgb(0,0,0)" stroke-width="1" opacity="0.7058823529411765" d="M 484 93 L 487 93.5 L 484.5 95 L 484 93 Z " /><path fill="rgb(0,0,0)" stroke="rgb(0,0,0)" stroke-width="1" opacity="0.7058823529411765" d="M 509.5 93 L 512 93.5 L 509.5 94 L 509.5 93 Z " /><path fill="rgb(0,0,0)" stroke="rgb(0,0,0)" stroke-width="1" opacity="0.7058823529411765" d="M 528.5 93 L 529 96.5 L 528 96.5 L 528.5 93 Z " /><path fill="rgb(0,0,0)" stroke="rgb(0,0,0)" stroke-width="1" opacity="0.7058823529411765" d="M 609.5 93 L 610 103.5 L 609 103.5 L 609.5 93 Z " /><path fill="rgb(0,0,0)" stroke="rgb(0,0,0)" stroke-width="1" opacity="0.7058823529411765" d="M 271 94 L 298 94.5 L 272 95 L 271.5 117 L 271 94 Z " /><path fill="rgb(0,0,0)" stroke="rgb(0,0,0)" stroke-width="1" opacity="0.7058823529411765" d="M 505.5 95 L 515 95.5 L 505.5 96 L 505.5 95 Z " /><path fill="rgb(0,0,0)" stroke="rgb(0,0,0)" stroke-width="1" opacity="0.7058823529411765" d="M 566.5 95 L 567 97.5 L 566 97.5 L 566.5 95 Z " /><path fill="rgb(0,0,0)" stroke="rgb(0,0,0)" stroke-width="1" opacity="0.7058823529411765" d="M 491.5 96 L 494 96.5 L 491.5 97 L 491.5 96 Z " /><path fill="rgb(0,0,0)" stroke="rgb(0,0,0)" stroke-width="1" opacity="0.7058823529411765" d="M 522.5 96 L 523 98.5 L 522 98.5 L 522.5 96 Z " /><path fill="rgb(0,0,0)" stroke="rgb(0,0,0)" stroke-width="1" opacity="0.7058823529411765" d="M 563.5 96 L 564 98.5 L 563 98.5 L 563.5 96 Z " /><path fill="rgb(0,0,0)" stroke="rgb(0,0,0)" stroke-width="1" opacity="0.7058823529411765" d="M 570.5 96 L 569.5 98 L 570.5 96 Z " /><path fill="rgb(0,0,0)" stroke="rgb(0,0,0)" stroke-width="1" opacity="0.7058823529411765" d="M 37 97 L 80 97.5 L 38 98 L 37.5 138 L 37 97 Z " /><path fill="rgb(0,0,0)" stroke="rgb(0,0,0)" stroke-width="1" opacity="0.7058823529411765" d="M 161.5 98 L 190 98.5 L 161.5 99 L 161.5 98 Z " /><path fill="rgb(0,0,0)" stroke="rgb(0,0,0)" stroke-width="1" opacity="0.7058823529411765" d="M 590.5 98 L 591 101.5 L 590 101.5 L 590.5 98 Z " /><path fill="rgb(0,0,0)" stroke="rgb(0,0,0)" stroke-width="1" opacity="0.7058823529411765" d="M 595.5 98 L 596 100.5 L 595 100.5 L 595.5 98 Z " /><path fill="rgb(0,0,0)" stroke="rgb(0,0,0)" stroke-width="1" opacity="0.7058823529411765" d="M 568.5 99 L 566.5 102 L 568.5 99 Z " /><path fill="rgb(0,0,0)" stroke="rgb(0,0,0)" stroke-width="1" opacity="0.7058823529411765" d="M 493.5 100 L 494 103.5 L 493 103.5 L 493.5 100 Z " /><path fill="rgb(0,0,0)" stroke="rgb(0,0,0)" stroke-width="1" opacity="0.7058823529411765" d="M 527.5 101 L 528 104.5 L 527 104.5 L 527.5 101 Z " /><path fill="rgb(0,0,0)" stroke="rgb(0,0,0)" stroke-width="1" opacity="0.7058823529411765" d="M 562.5 102 L 563 113.5 L 562 113.5 L 562.5 102 Z " /><path fill="rgb(0,0,0)" stroke="rgb(0,0,0)" stroke-width="1" opacity="0.7058823529411765" d="M 521.5 103 L 522 108.5 L 521 108.5 L 521.5 103 Z " /><path fill="rgb(0,0,0)" stroke="rgb(0,0,0)" stroke-width="1" opacity="0.7058823529411765" d="M 644.5 103 L 645 105.5 L 644 105.5 L 644.5 103 Z " /><path fill="rgb(0,0,0)" stroke="rgb(0,0,0)" stroke-width="1" opacity="0.7058823529411765" d="M 497.5 105 L 498 107.5 L 497 107.5 L 497.5 105 Z " /><path fill="rgb(0,0,0)" stroke="rgb(0,0,0)" stroke-width="1" opacity="0.7058823529411765" d="M 628.5 105 L 631 105.5 L 627.5 107 L 628.5 105 Z " /><path fill="rgb(0,0,0)" stroke="rgb(0,0,0)" stroke-width="1" opacity="0.7058823529411765" d="M 336.5 107 L 337 110.5 L 336 110.5 L 336.5 107 Z " /><path fill="rgb(0,0,0)" stroke="rgb(0,0,0)" stroke-width="1" opacity="0.7058823529411765" d="M 492.5 107 L 493 109.5 L 492 109.5 L 492.5 107 Z " /><path fill="rgb(0,0,0)" stroke="rgb(0,0,0)" stroke-width="1" opacity="0.7058823529411765" d="M 605.5 107 L 606 109.5 L 605 109.5 L 605.5 107 Z " /><path fill="rgb(0,0,0)" stroke="rgb(0,0,0)" stroke-width="1" opacity="0.7058823529411765" d="M 608.5 109 L 609 113.5 L 608 113.5 L 608.5 109 Z " /><path fill="rgb(0,0,0)" stroke="rgb(0,0,0)" stroke-width="1" opacity="0.7058823529411765" d="M 643.5 109 L 644 111.5 L 643 111.5 L 643.5 109 Z " /><path fill="rgb(0,0,0)" stroke="rgb(0,0,0)" stroke-width="1" opacity="0.7058823529411765" d="M 526.5 110 L 527 131.5 L 526 131.5 L 526.5 110 Z " /><path fill="rgb(0,0,0)" stroke="rgb(0,0,0)" stroke-width="1" opacity="0.7058823529411765" d="M 306.5 111 L 303.5 115 L 306.5 111 Z " /><path fill="rgb(0,0,0)" stroke="rgb(0,0,0)" stroke-width="1" opacity="0.7058823529411765" d="M 595.5 111 L 596 113.5 L 595 113.5 L 595.5 111 Z " /><path fill="rgb(0,0,0)" stroke="rgb(0,0,0)" stroke-width="1" opacity="0.7058823529411765" d="M 491.5 113 L 492 115.5 L 491 115.5 L 491.5 113 Z " /><path fill="rgb(0,0,0)" stroke="rgb(0,0,0)" stroke-width="1" opacity="0.7058823529411765" d="M 604.5 114 L 605 116.5 L 604 116.5 L 604.5 114 Z " /><path fill="rgb(0,0,0)" stroke="rgb(0,0,0)" stroke-width="1" opacity="0.7058823529411765" d="M 645.5 114 L 646 116.5 L 645 116.5 L 645.5 114 Z " /><path fill="rgb(0,0,0)" stroke="rgb(0,0,0)" stroke-width="1" opacity="0.7058823529411765" d="M 590.5 115 L 591 118.5 L 590 118.5 L 590.5 115 Z " /><path fill="rgb(0,0,0)" stroke="rgb(0,0,0)" stroke-width="1" opacity="0.7058823529411765" d="M 642.5 116 L 643 118.5 L 642 118.5 L 642.5 116 Z " /><path fill="rgb(0,0,0)" stroke="rgb(0,0,0)" stroke-width="1" opacity="0.7058823529411765" d="M 566.5 118 L 569.5 122 L 566 119.5 L 565.5 123 L 565 119.5 L 566.5 118 Z " /><path fill="rgb(0,0,0)" stroke="rgb(0,0,0)" stroke-width="1" opacity="0.7058823529411765" d="M 490.5 119 L 491 121.5 L 490 121.5 L 490.5 119 Z " /><path fill="rgb(0,0,0)" stroke="rgb(0,0,0)" stroke-width="1" opacity="0.7058823529411765" d="M 644.5 120 L 645 122.5 L 644 122.5 L 644.5 120 Z " /><path fill="rgb(0,0,0)" stroke="rgb(0,0,0)" stroke-width="1" opacity="0.7058823529411765" d="M 333.5 121 L 332.5 123 L 333.5 121 Z " /><path fill="rgb(0,0,0)" stroke="rgb(0,0,0)" stroke-width="1" opacity="0.7058823529411765" d="M 494.5 121 L 495 123.5 L 494 123.5 L 494.5 121 Z " /><path fill="rgb(0,0,0)" stroke="rgb(0,0,0)" stroke-width="1" opacity="0.7058823529411765" d="M 521.5 122 L 522 126.5 L 521 126.5 L 521.5 122 Z " /><path fill="rgb(0,0,0)" stroke="rgb(0,0,0)" stroke-width="1" opacity="0.7058823529411765" d="M 603.5 122 L 604 131.5 L 603 131.5 L 603.5 122 Z " /><path fill="rgb(0,0,0)" stroke="rgb(0,0,0)" stroke-width="1" opacity="0.7058823529411765" d="M 633.5 123 L 634 126.5 L 633 126.5 L 633.5 123 Z " /><path fill="rgb(0,0,0)" stroke="rgb(0,0,0)" stroke-width="1" opacity="0.7058823529411765" d="M 331.5 124 L 326.5 130 L 331.5 124 Z " /><path fill="rgb(0,0,0)" stroke="rgb(0,0,0)" stroke-width="1" opacity="0.7058823529411765" d="M 489.5 125 L 490 127.5 L 489 127.5 L 489.5 125 Z " /><path fill="rgb(0,0,0)" stroke="rgb(0,0,0)" stroke-width="1" opacity="0.7058823529411765" d="M 493.5 126 L 494 128.5 L 493 128.5 L 493.5 126 Z " /><path fill="rgb(0,0,0)" stroke="rgb(0,0,0)" stroke-width="1" opacity="0.7058823529411765" d="M 561.5 127 L 562 129.5 L 561 129.5 L 561.5 127 Z " /><path fill="rgb(0,0,0)" stroke="rgb(0,0,0)" stroke-width="1" opacity="0.7058823529411765" d="M 608.5 128 L 609 130.5 L 608 130.5 L 608.5 128 Z " /><path fill="rgb(0,0,0)" stroke="rgb(0,0,0)" stroke-width="1" opacity="0.7058823529411765" d="M 630.5 128 L 631.5 130 L 630.5 128 Z " /><path fill="rgb(0,0,0)" stroke="rgb(0,0,0)" stroke-width="1" opacity="0.7058823529411765" d="M 639.5 128 L 637.5 131 L 639.5 128 Z " /><path fill="rgb(0,0,0)" stroke="rgb(0,0,0)" stroke-width="1" opacity="0.7058823529411765" d="M 634.5 129 L 635.5 131 L 634.5 129 Z " /><path fill="rgb(0,0,0)" stroke="rgb(0,0,0)" stroke-width="1" opacity="0.7058823529411765" d="M 324.5 130 L 323.5 132 L 324.5 130 Z " /><path fill="rgb(0,0,0)" stroke="rgb(0,0,0)" stroke-width="1" opacity="0.7058823529411765" d="M 621.5 130 L 620.5 132 L 621.5 130 Z " /><path fill="rgb(0,0,0)" stroke="rgb(0,0,0)" stroke-width="1" opacity="0.7058823529411765" d="M 617.5 132 L 616.5 134 L 617.5 132 Z " /><path fill="rgb(0,0,0)" stroke="rgb(0,0,0)" stroke-width="1" opacity="0.7058823529411765" d="M 588.5 133 L 587.5 135 L 588.5 133 Z " /><path fill="rgb(0,0,0)" stroke="rgb(0,0,0)" stroke-width="1" opacity="0.7058823529411765" d="M 619.5 133 L 618.5 135 L 619.5 133 Z " /><path fill="rgb(0,0,0)" stroke="rgb(0,0,0)" stroke-width="1" opacity="0.7058823529411765" d="M 568.5 135 L 571.5 139 L 568.5 135 Z " /><path fill="rgb(0,0,0)" stroke="rgb(0,0,0)" stroke-width="1" opacity="0.7058823529411765" d="M 583.5 135 L 580.5 139 L 583.5 135 Z " /><path fill="rgb(0,0,0)" stroke="rgb(0,0,0)" stroke-width="1" opacity="0.7058823529411765" d="M 610.5 135 L 611.5 137 L 610.5 135 Z " /><path fill="rgb(0,0,0)" stroke="rgb(0,0,0)" stroke-width="1" opacity="0.7058823529411765" d="M 309.5 136 L 312 136.5 L 309.5 137 L 309.5 136 Z " /><path fill="rgb(0,0,0)" stroke="rgb(0,0,0)" stroke-width="1" opacity="0.7058823529411765" d="M 527.5 136 L 528 138.5 L 527 138.5 L 527.5 136 Z " /><path fill="rgb(0,0,0)" stroke="rgb(0,0,0)" stroke-width="1" opacity="0.7058823529411765" d="M 301.5 137 L 306 137.5 L 301.5 138 L 301.5 137 Z " /><path fill="rgb(0,0,0)" stroke="rgb(0,0,0)" stroke-width="1" opacity="0.7058823529411765" d="M 564.5 137 L 568.5 142 L 564.5 137 Z " /><path fill="rgb(0,0,0)" stroke="rgb(0,0,0)" stroke-width="1" opacity="0.7058823529411765" d="M 585.5 137 L 582.5 141 L 585.5 137 Z " /><path fill="rgb(0,0,0)" stroke="rgb(0,0,0)" stroke-width="1" opacity="0.7058823529411765" d="M 613.5 139 L 612.5 141 L 613.5 139 Z " /><path fill="rgb(0,0,0)" stroke="rgb(0,0,0)" stroke-width="1" opacity="0.7058823529411765" d="M 528.5 146 L 530.5 149 L 528.5 146 Z " /><path fill="rgb(0,0,0)" stroke="rgb(0,0,0)" stroke-width="1" opacity="0.7058823529411765" d="M 477.5 162 L 476.5 164 L 477.5 162 Z " /><path fill="rgb(0,0,0)" stroke="rgb(0,0,0)" stroke-width="1" opacity="0.7058823529411765" d="M 478.5 167 L 477.5 169 L 478.5 167 Z " /><path fill="rgb(0,0,0)" stroke="rgb(0,0,0)" stroke-width="1" opacity="0.7058823529411765" d="M 472.5 169 L 469.5 173 L 472.5 169 Z " /><path fill="rgb(0,0,0)" stroke="rgb(0,0,0)" stroke-width="1" opacity="0.7058823529411765" d="M 453.5 171 L 457 173.5 L 454.5 172 L 453.5 171 Z " /><path fill="rgb(0,0,0)" stroke="rgb(0,0,0)" stroke-width="1" opacity="0.7058823529411765" d="M 475.5 171 L 473.5 174 L 475.5 171 Z " /><path fill="rgb(0,0,0)" stroke="rgb(0,0,0)" stroke-width="1" opacity="0.7058823529411765" d="M 451.5 173 L 452 175.5 L 451 175.5 L 451.5 173 Z " /><path fill="rgb(0,0,0)" stroke="rgb(0,0,0)" stroke-width="1" opacity="0.7058823529411765" d="M 466.5 174 L 465.5 176 L 466.5 174 Z " /><path fill="rgb(0,0,0)" stroke="rgb(0,0,0)" stroke-width="1" opacity="0.7058823529411765" d="M 457.5 175 L 458.5 177 L 457.5 175 Z " /><path fill="rgb(0,0,0)" stroke="rgb(0,0,0)" stroke-width="1" opacity="0.7058823529411765" d="M 470.5 175 L 469.5 177 L 470.5 175 Z " /><path fill="rgb(0,0,0)" stroke="rgb(0,0,0)" stroke-width="1" opacity="0.7058823529411765" d="M 452.5 177 L 453.5 179 L 452.5 177 Z " /><path fill="rgb(0,0,0)" stroke="rgb(0,0,0)" stroke-width="1" opacity="0.7058823529411765" d="M 455.5 179 L 458 179.5 L 455.5 180 L 455.5 179 Z " /><path fill="rgb(0,0,0)" stroke="rgb(0,0,0)" stroke-width="1" opacity="0.7058823529411765" d="M 460.5 179 L 463 179.5 L 460.5 180 L 460.5 179 Z " /><path fill="rgb(0,0,0)" stroke="rgb(0,0,0)" stroke-width="1" opacity="1" d="M 11 33 L 37 33 L 37 76 L 80 76 L 80 33 L 107 33 L 107 137.5 L 106.5 138 L 80 138 L 80 97 L 37 97 L 37 138 L 11 138 L 11 33 Z " /><path fill="rgb(0,0,0)" stroke="rgb(0,0,0)" stroke-width="1" opacity="1" d="M 162 33 L 189.5 33 L 191 34.5 L 234 137.5 L 205 138 L 199 119 L 152.5 119 L 152 120.5 L 145 138 L 118.5 138 L 118 135.5 L 162 33 Z M 176 60 L 161 96 L 162 99 L 190 99 L 176 60 Z " /><path fill="rgb(0,0,0)" stroke="rgb(0,0,0)" stroke-width="1" opacity="1" d="M 244 33 L 300.5 33 Q 302 35.5 307.5 34 Q 321.9 36.6 329 46.5 Q 333.2 51.8 333 61.5 Q 331 73.5 322.5 79 L 315 82.5 L 318.5 83 L 329 89.5 Q 337.3 96.7 336 113.5 Q 334.1 125.1 325.5 130 L 316.5 135 L 300.5 138 L 244 138 L 244 33 Z M 271 54 L 271 75 L 297 75 L 300 74 L 305 68 L 304 59 L 298 54 L 271 54 Z M 271 94 L 271 117 L 299 117 L 304 115 L 308 110 L 308 102 L 306 98 L 298 94 L 271 94 Z " /><path fill="rgb(0,0,0)" stroke="rgb(0,0,0)" stroke-width="1" opacity="1" d="M 352 33 L 377.5 33 L 378 33.5 L 378 138 L 352.5 138 L 352 137.5 L 352 33 Z " /><path fill="rgb(0,0,0)" stroke="rgb(0,0,0)" stroke-width="1" opacity="1" d="M 390 33 L 479.5 33 L 480 33.5 L 480 55 L 448 55 L 448 137.5 L 447.5 138 L 422 138 L 422 55.5 L 421.5 55 L 390 55 L 390 33 Z " /><path fill="rgb(0,0,0)" stroke="rgb(0,0,0)" stroke-width="1" opacity="1" d="M 556.5 36 Q 566 34 568 39.5 L 568 48.5 L 563 61.5 Q 551.6 81.1 535.5 96 L 540 90.5 Q 550.5 79 557 63.5 L 562 48.5 L 562 40.5 Q 561.3 37.3 556.5 38 L 545 47.5 L 537 60.5 L 530 82.5 L 528 100.5 L 527 101.5 L 527 109.5 L 526 110.5 L 526 131.5 L 529 144.5 L 533 148.5 L 531.5 149 L 527 144.5 L 523 134.5 L 522 122.5 L 521 121.5 L 521 109.5 L 522 108.5 L 522 99.5 L 524 88.5 L 529 70.5 Q 535 52.5 547.5 41 L 556.5 36 Z " /><path fill="rgb(0,0,0)" stroke="rgb(0,0,0)" stroke-width="1" opacity="1" d="M 514.5 42 Q 523.9 40.6 526 46.5 L 527 51.5 Q 525.8 59.3 520.5 63 L 520 61.5 Q 525 59 524 50.5 Q 523 47 517.5 48 Q 510.9 52.4 508 60.5 L 500 93 L 515 94.5 L 499 96 L 493 130.5 L 489 145.5 L 480 165.5 L 471.5 175 Q 466.6 179.1 458.5 180 L 454.5 179 L 452 176.5 Q 449.9 170.7 454.5 172 L 458.5 177 L 465.5 176 L 473 169.5 L 478 162.5 L 486 143.5 L 490 127.5 L 491 116.5 L 494 103.5 L 494 96 L 486.5 97 L 485 94 Q 488.1 92 495 93 L 499 70.5 L 504 54.5 L 512.5 43 L 514.5 42 Z " /><path fill="rgb(0,0,0)" stroke="rgb(0,0,0)" stroke-width="1" opacity="1" d="M 576.5 78 L 581.5 78 L 589 83.5 L 595 95.5 L 596 110.5 L 592 126.5 Q 588.5 135.5 581.5 141 Q 578.8 143.8 572.5 143 Q 566.4 141.6 564 136.5 L 561 126.5 L 561 118.5 L 563 113.5 L 564 94.5 Q 566.1 84.1 573.5 79 L 576.5 78 Z M 578 81 L 575 82 Q 569 87 566 96 L 567 102 L 571 96 L 577 91 L 578 92 Q 567 99 567 117 L 575 123 L 585 123 L 586 123 L 582 125 Q 575 126 572 123 L 567 118 L 565 120 L 566 131 L 568 136 L 574 140 L 581 139 Q 589 132 591 119 Q 594 96 586 85 Q 584 80 578 81 Z " /><path fill="rgb(0,0,0)" stroke="rgb(0,0,0)" stroke-width="1" opacity="1" d="M 601 83 Q 605.6 81.8 607 84.5 L 609 89.5 L 609 108.5 L 608 109.5 L 608 130.5 L 611.5 137 L 613.5 137 L 618 132.5 L 623 122.5 Q 624.3 112.8 628.5 106 Q 633.3 104.3 632 108.5 L 633 109.5 L 633 126.5 L 635.5 131 Q 639.5 131.5 640 128.5 L 643 118.5 L 643 112.5 L 646 97.5 L 649 89.5 L 651.5 87 L 656.5 86 L 662 89.5 L 663 91.5 L 661.5 92 Q 660.3 89.8 655.5 91 L 649 99.5 L 645 114.5 L 644 125.5 L 641 134 L 638.5 135 L 632 130.5 L 626.5 118 Q 623.1 131.1 614.5 139 Q 612.8 141.8 607.5 141 L 604 135.5 L 604 117.5 L 607 102.5 L 607 90.5 L 604.5 85 L 600.5 87 L 600 85.5 L 601 83 Z " /><path fill="rgb(0,0,0)" stroke="rgb(0,0,0)" stroke-width="1" opacity="0" d="M 0 0 L 662.5 0 L 663 0.5 L 663 89.5 L 659.5 87 L 652.5 86 L 647 92.5 L 644 103.5 L 641 124.5 L 636.5 131 L 634 128.5 L 633 107.5 L 630.5 105 L 627 106.5 Q 623.9 124.4 614.5 136 L 612.5 137 Q 605.9 130.1 608 114.5 L 610 103.5 L 610 93.5 L 608 85.5 L 604.5 82 Q 600.5 81.5 600 84.5 L 599 88.5 L 602.5 86 L 606 87.5 L 606 106.5 L 603 122.5 L 603 131.5 L 606 141 L 609.5 142 L 612.5 141 L 620 133.5 L 626.5 119 L 627 122.5 L 633 133 L 636.5 135 L 639.5 135 L 644 127.5 Q 645.2 111.2 650 98.5 L 654.5 92 L 659.5 91 L 663 93.5 L 663 190.5 L 662.5 191 L 0 191 L 0 0 Z M 10 33 L 10 138 L 38 138 L 38 98 L 80 98 L 80 138 L 108 138 L 108 138 L 108 33 L 80 33 L 80 76 L 38 76 L 38 33 L 10 33 Z M 163 33 L 117 137 L 118 138 L 146 138 L 152 121 L 154 119 L 198 119 L 205 137 L 206 138 L 234 138 L 191 35 L 191 33 L 163 33 Z M 244 33 L 244 138 L 306 138 L 318 135 L 327 130 L 334 122 L 337 111 L 336 102 L 332 93 Q 327 85 317 83 L 325 78 Q 330 73 333 65 L 333 55 L 328 45 Q 320 35 305 33 L 244 33 Z M 351 33 L 351 138 L 352 138 L 379 138 L 379 34 L 379 33 L 351 33 Z M 390 33 L 390 55 L 421 55 L 421 56 L 421 138 L 449 138 L 449 55 L 480 55 L 480 34 L 480 33 L 390 33 Z M 559 35 L 550 39 Q 536 49 530 67 L 523 91 L 522 103 L 521 104 L 521 127 L 524 140 L 528 147 Q 529 150 533 149 L 534 150 Q 535 147 533 148 L 529 144 L 527 136 L 527 106 L 528 105 L 529 91 L 535 67 L 544 50 L 554 40 L 559 38 L 561 39 L 562 42 Q 560 61 551 75 L 534 97 L 536 97 L 558 71 Q 566 61 569 47 L 568 39 Q 566 34 559 35 Z M 517 41 L 514 42 Q 505 48 502 59 L 497 78 L 495 92 L 493 93 L 485 93 L 484 95 L 487 97 L 494 97 L 488 135 L 483 151 L 475 167 Q 470 175 460 177 L 455 171 L 451 174 L 452 178 L 456 180 Q 468 181 474 174 Q 483 164 488 150 L 494 129 L 499 98 L 501 96 L 515 96 L 515 94 L 501 92 Q 503 69 513 53 L 520 48 L 523 49 L 524 52 Q 524 58 520 61 L 521 64 L 527 54 L 526 46 Q 523 41 517 41 Z M 575 78 L 573 79 Q 567 84 564 93 L 562 103 L 562 116 L 561 117 Q 559 130 564 138 L 571 143 Q 579 144 583 141 Q 589 135 593 126 L 596 114 L 596 99 L 591 86 L 583 78 L 575 78 Z " /><path fill="rgb(0,0,0)" stroke="rgb(0,0,0)" stroke-width="1" opacity="0" d="M 272 54 L 296.5 54 L 304 59.5 L 305 65.5 L 300.5 73 L 292.5 75 L 272 75 L 272 54 Z " /><path fill="rgb(0,0,0)" stroke="rgb(0,0,0)" stroke-width="1" opacity="0" d="M 175.5 61 L 190 97.5 L 161.5 98 L 162 96.5 L 175.5 61 Z " /><path fill="rgb(0,0,0)" stroke="rgb(0,0,0)" stroke-width="1" opacity="0" d="M 575.5 82 Q 585.3 80.3 587 86.5 L 590 95.5 L 591 114.5 L 588 127.5 Q 585.4 134.9 579.5 139 L 574.5 140 L 568 134.5 Q 564.9 129.1 566 119.5 L 569.5 122 Q 573 125.5 579.5 126 L 583.5 125 L 586 122.5 L 583.5 122 Q 581.8 124.8 575.5 123 L 568 117.5 L 567 111.5 L 572 98.5 L 576.5 93 L 579 91.5 L 575.5 91 L 566.5 101 L 566 98.5 Q 567.7 87.2 575.5 82 Z " /><path fill="rgb(0,0,0)" stroke="rgb(0,0,0)" stroke-width="1" opacity="0" d="M 272 95 L 299.5 95 L 307 100.5 L 308 108.5 L 302.5 115 L 296.5 117 L 272 117 L 272 95 Z " /></svg>