<svg width="663" height="191" version="1.1" xmlns="http://www.w3.org/2000/svg" desc="Created with imagetracer.js version 1.2.6" ><path fill="rgb(255,255,255)" stroke="rgb(255,255,255)" stroke-width="1" opacity="0.5019607843137255" d="M 10 32 L 38 32 L 38 75 L 79.5 75 L 79.5 76 L 37 76 L 37 33 L 11 33 L 10.5 138 L 10 32 Z " /><path fill="rgb(255,255,255)" stroke="rgb(255,255,255)" stroke-width="1" opacity="0.5019607843137255" d="M 80.5 32 L 107.5 32 L 108 32.5 L 108 137.5 L 107 137.5 L 107 33.5 L 106.5 33 L 80.5 33 L 80.5 32 Z " /><path fill="rgb(255,255,255)" stroke="rgb(255,255,255)" stroke-width="1" opacity="0.5019607843137255" d="M 162.5 32 L 190.5 32 L 191 33.5 L 192 35.5 L 191 35.5 L 189.5 33 L 162.5 33 L 162 34.5 L 161 34.5 L 162.5 32 Z " /><path fill="rgb(255,255,255)" stroke="rgb(255,255,255)" stroke-width="1" opacity="0.5019607843137255" d="M 244.5 32 L 298 32.5 L 244.5 33 L 244.5 32 Z " /><path fill="rgb(255,255,255)" stroke="rgb(255,255,255)" stroke-width="1" opacity="0.5019607843137255" d="M 351 32 L 378.5 32 L 379 32.5 L 379 137.5 L 378 137.5 L 378 33.5 L 377.5 33 L 352 33 L 351.5 138 L 351 32 Z " /><path fill="rgb(255,255,255)" stroke="rgb(255,255,255)" stroke-width="1" opacity="0.5019607843137255" d="M 390.5 32 L 479.5 32 L 481 33.5 L 480.5 55 L 480 33 L 390.5 33 L 390.5 32 Z " /><path fill="rgb(255,255,255)" stroke="rgb(255,255,255)" stroke-width="1" opacity="0.5019607843137255" d="M 301.5 33 L 307 33.5 L 301.5 34 L 301.5 33 Z " /><path fill="rgb(255,255,255)" stroke="rgb(255,255,255)" stroke-width="1" opacity="0.5019607843137255" d="M 308.5 34 L 311 34.5 L 308.5 35 L 308.5 34 Z " /><path fill="rgb(255,255,255)" stroke="rgb(255,255,255)" stroke-width="1" opacity="0.5019607843137255" d="M 557.5 35 L 564 35.5 L 557.5 36 L 557.5 35 Z " /><path fill="rgb(255,255,255)" stroke="rgb(255,255,255)" stroke-width="1" opacity="0.5019607843137255" d="M 315.5 36 L 322 39.5 L 320.5 39 L 315.5 37 L 315.5 36 Z " /><path fill="rgb(255,255,255)" stroke="rgb(255,255,255)" stroke-width="1" opacity="0.5019607843137255" d="M 554.5 36 L 556 36.5 Q 547.2 39.7 542 46.5 L 537.5 53 L 538 51.5 L 547.5 40 L 554.5 36 Z " /><path fill="rgb(255,255,255)" stroke="rgb(255,255,255)" stroke-width="1" opacity="0.5019607843137255" d="M 565.5 36 L 567.5 39 L 565.5 36 Z " /><path fill="rgb(255,255,255)" stroke="rgb(255,255,255)" stroke-width="1" opacity="0.5019607843137255" d="M 192.5 37 L 195 42.5 L 194 42.5 L 192.5 37 Z " /><path fill="rgb(255,255,255)" stroke="rgb(255,255,255)" stroke-width="1" opacity="0.5019607843137255" d="M 159.5 38 L 160 39.5 L 158.5 42 L 158 40.5 L 159.5 38 Z " /><path fill="rgb(255,255,255)" stroke="rgb(255,255,255)" stroke-width="1" opacity="0.5019607843137255" d="M 556.5 38 Q 561.3 37.3 562 40.5 L 561.5 42 L 559.5 39 L 554.5 40 L 545.5 48 L 551.5 41 L 556.5 38 Z " /><path fill="rgb(255,255,255)" stroke="rgb(255,255,255)" stroke-width="1" opacity="0.5019607843137255" d="M 323.5 40 Q 331.4 44.6 333 55.5 L 332 55.5 L 332 52.5 L 329 46.5 L 323.5 40 Z " /><path fill="rgb(255,255,255)" stroke="rgb(255,255,255)" stroke-width="1" opacity="0.5019607843137255" d="M 568.5 40 L 569 48.5 L 567.5 52 L 567 49.5 L 568 48.5 L 568.5 40 Z " /><path fill="rgb(255,255,255)" stroke="rgb(255,255,255)" stroke-width="1" opacity="0.5019607843137255" d="M 514.5 41 L 520 41.5 Q 511.1 41.1 508.5 47 L 512.5 42 L 514.5 41 Z " /><path fill="rgb(255,255,255)" stroke="rgb(255,255,255)" stroke-width="1" opacity="0.5019607843137255" d="M 521.5 42 L 527 46.5 L 526.5 49 L 522.5 43 L 521.5 42 Z " /><path fill="rgb(255,255,255)" stroke="rgb(255,255,255)" stroke-width="1" opacity="0.5019607843137255" d="M 195.5 44 L 200 54.5 L 199 54.5 L 195.5 44 Z " /><path fill="rgb(255,255,255)" stroke="rgb(255,255,255)" stroke-width="1" opacity="0.5019607843137255" d="M 156.5 45 L 157 46.5 L 155.5 49 L 155 47.5 L 156.5 45 Z " /><path fill="rgb(255,255,255)" stroke="rgb(255,255,255)" stroke-width="1" opacity="0.5019607843137255" d="M 561.5 45 L 562 48.5 L 561 48.5 L 561.5 45 Z " /><path fill="rgb(255,255,255)" stroke="rgb(255,255,255)" stroke-width="1" opacity="0.5019607843137255" d="M 507.5 48 L 506.5 50 L 507.5 48 Z " /><path fill="rgb(255,255,255)" stroke="rgb(255,255,255)" stroke-width="1" opacity="0.5019607843137255" d="M 517.5 48 Q 523 47 524 50.5 L 524 55.5 L 520 62.5 L 524 60.5 L 522 64 Q 517.9 65.7 519 61.5 Q 524 59 523 50.5 Q 522 48 517.5 49 Q 511.7 52.7 509.5 60 L 509 58.5 L 517.5 48 Z " /><path fill="rgb(255,255,255)" stroke="rgb(255,255,255)" stroke-width="1" opacity="0.5019607843137255" d="M 544.5 49 L 543 51.5 L 537.5 62 L 537 60.5 L 544.5 49 Z " /><path fill="rgb(255,255,255)" stroke="rgb(255,255,255)" stroke-width="1" opacity="0.5019607843137255" d="M 560.5 50 L 561 52.5 L 558.5 58 L 558 56.5 L 560.5 50 Z " /><path fill="rgb(255,255,255)" stroke="rgb(255,255,255)" stroke-width="1" opacity="0.5019607843137255" d="M 153.5 52 L 154 53.5 L 152.5 56 L 152 54.5 L 153.5 52 Z " /><path fill="rgb(255,255,255)" stroke="rgb(255,255,255)" stroke-width="1" opacity="0.5019607843137255" d="M 526.5 52 L 527 54.5 L 526 54.5 L 526.5 52 Z " /><path fill="rgb(255,255,255)" stroke="rgb(255,255,255)" stroke-width="1" opacity="0.5019607843137255" d="M 566.5 53 L 567 54.5 L 564.5 59 L 564 57.5 L 566.5 53 Z " /><path fill="rgb(255,255,255)" stroke="rgb(255,255,255)" stroke-width="1" opacity="0.5019607843137255" d="M 271.5 54 L 272 74 L 297 74.5 L 271 75 L 271.5 54 Z " /><path fill="rgb(255,255,255)" stroke="rgb(255,255,255)" stroke-width="1" opacity="0.5019607843137255" d="M 295.5 54 L 298 54.5 L 295.5 55 L 295.5 54 Z " /><path fill="rgb(255,255,255)" stroke="rgb(255,255,255)" stroke-width="1" opacity="0.5019607843137255" d="M 536.5 54 L 536 55.5 L 531.5 65 L 531 63.5 L 536.5 54 Z " /><path fill="rgb(255,255,255)" stroke="rgb(255,255,255)" stroke-width="1" opacity="0.5019607843137255" d="M 421.5 55 L 422 137.5 L 421 137.5 L 421.5 55 Z " /><path fill="rgb(255,255,255)" stroke="rgb(255,255,255)" stroke-width="1" opacity="0.5019607843137255" d="M 448.5 55 L 449 137.5 L 448 137.5 L 448.5 55 Z " /><path fill="rgb(255,255,255)" stroke="rgb(255,255,255)" stroke-width="1" opacity="0.5019607843137255" d="M 503.5 55 L 504 56.5 L 500.5 66 L 500 63.5 L 503.5 55 Z " /><path fill="rgb(255,255,255)" stroke="rgb(255,255,255)" stroke-width="1" opacity="0.5019607843137255" d="M 200.5 56 L 205 66.5 L 204 66.5 L 200.5 56 Z " /><path fill="rgb(255,255,255)" stroke="rgb(255,255,255)" stroke-width="1" opacity="0.5019607843137255" d="M 301.5 56 Q 306.5 58.5 305 67.5 L 299.5 74 L 298 73.5 L 303 69.5 L 304 60.5 L 301.5 56 Z " /><path fill="rgb(255,255,255)" stroke="rgb(255,255,255)" stroke-width="1" opacity="0.5019607843137255" d="M 525.5 56 L 526 57.5 L 524 58.5 L 525.5 56 Z " /><path fill="rgb(255,255,255)" stroke="rgb(255,255,255)" stroke-width="1" opacity="0.5019607843137255" d="M 150.5 59 L 151 60.5 L 148.5 65 L 148 63.5 L 150.5 59 Z " /><path fill="rgb(255,255,255)" stroke="rgb(255,255,255)" stroke-width="1" opacity="0.5019607843137255" d="M 175.5 61 L 177 63.5 L 176 63.5 L 175.5 62 L 174.5 64 L 174 62.5 L 175.5 61 Z " /><path fill="rgb(255,255,255)" stroke="rgb(255,255,255)" stroke-width="1" opacity="0.5019607843137255" d="M 508.5 61 L 509 62.5 L 506.5 69 L 506 66.5 L 508.5 61 Z " /><path fill="rgb(255,255,255)" stroke="rgb(255,255,255)" stroke-width="1" opacity="0.5019607843137255" d="M 332.5 62 L 333 65.5 L 332 65.5 L 332.5 62 Z " /><path fill="rgb(255,255,255)" stroke="rgb(255,255,255)" stroke-width="1" opacity="0.5019607843137255" d="M 556.5 62 L 557 63.5 L 554.5 68 L 554 66.5 L 556.5 62 Z " /><path fill="rgb(255,255,255)" stroke="rgb(255,255,255)" stroke-width="1" opacity="0.5019607843137255" d="M 562.5 62 L 562 63.5 L 560.5 66 L 561 64.5 L 562.5 62 Z " /><path fill="rgb(255,255,255)" stroke="rgb(255,255,255)" stroke-width="1" opacity="0.5019607843137255" d="M 536.5 63 L 537 64.5 L 535.5 67 L 535 65.5 L 536.5 63 Z " /><path fill="rgb(255,255,255)" stroke="rgb(255,255,255)" stroke-width="1" opacity="0.5019607843137255" d="M 173.5 65 L 174 66.5 L 172.5 69 L 172 67.5 L 173.5 65 Z " /><path fill="rgb(255,255,255)" stroke="rgb(255,255,255)" stroke-width="1" opacity="0.5019607843137255" d="M 177.5 65 L 182 76.5 L 181 76.5 L 177.5 65 Z " /><path fill="rgb(255,255,255)" stroke="rgb(255,255,255)" stroke-width="1" opacity="0.5019607843137255" d="M 147.5 66 L 148 67.5 L 145.5 72 L 145 70.5 L 147.5 66 Z " /><path fill="rgb(255,255,255)" stroke="rgb(255,255,255)" stroke-width="1" opacity="0.5019607843137255" d="M 530.5 66 L 531 67.5 L 529.5 70 L 529 68.5 L 530.5 66 Z " /><path fill="rgb(255,255,255)" stroke="rgb(255,255,255)" stroke-width="1" opacity="0.5019607843137255" d="M 331.5 67 L 332 68.5 Q 329 76 322.5 80 L 315.5 83 L 316.5 81 Q 325.4 79.4 329 72.5 L 331.5 67 Z " /><path fill="rgb(255,255,255)" stroke="rgb(255,255,255)" stroke-width="1" opacity="0.5019607843137255" d="M 499.5 67 L 500 69.5 L 499 69.5 L 499.5 67 Z " /><path fill="rgb(255,255,255)" stroke="rgb(255,255,255)" stroke-width="1" opacity="0.5019607843137255" d="M 559.5 67 L 559 68.5 Q 549.5 84.5 536.5 97 L 537 95.5 L 536.5 94 L 534.5 98 L 534 95.5 L 543.5 85 L 539 90.5 L 539.5 92 Q 551.3 81.3 559.5 67 Z " /><path fill="rgb(255,255,255)" stroke="rgb(255,255,255)" stroke-width="1" opacity="0.5019607843137255" d="M 205.5 68 L 208 73.5 L 207 73.5 L 205.5 68 Z " /><path fill="rgb(255,255,255)" stroke="rgb(255,255,255)" stroke-width="1" opacity="0.5019607843137255" d="M 171.5 70 L 172 71.5 L 170.5 74 L 170 72.5 L 171.5 70 Z " /><path fill="rgb(255,255,255)" stroke="rgb(255,255,255)" stroke-width="1" opacity="0.5019607843137255" d="M 505.5 70 L 506 72.5 L 505 72.5 L 505.5 70 Z " /><path fill="rgb(255,255,255)" stroke="rgb(255,255,255)" stroke-width="1" opacity="0.5019607843137255" d="M 498.5 71 L 499 74.5 L 498 74.5 L 498.5 71 Z " /><path fill="rgb(255,255,255)" stroke="rgb(255,255,255)" stroke-width="1" opacity="0.5019607843137255" d="M 552.5 71 L 552 72.5 L 544.5 84 L 546 81.5 L 552.5 71 Z " /><path fill="rgb(255,255,255)" stroke="rgb(255,255,255)" stroke-width="1" opacity="0.5019607843137255" d="M 144.5 73 L 145 74.5 L 142.5 79 L 142 77.5 L 144.5 73 Z " /><path fill="rgb(255,255,255)" stroke="rgb(255,255,255)" stroke-width="1" opacity="0.5019607843137255" d="M 504.5 74 L 505 76.5 L 504 76.5 L 504.5 74 Z " /><path fill="rgb(255,255,255)" stroke="rgb(255,255,255)" stroke-width="1" opacity="0.5019607843137255" d="M 532.5 74 L 533 76.5 L 532 76.5 L 532.5 74 Z " /><path fill="rgb(255,255,255)" stroke="rgb(255,255,255)" stroke-width="1" opacity="0.5019607843137255" d="M 208.5 75 L 213 85.5 L 212 85.5 L 208.5 75 Z " /><path fill="rgb(255,255,255)" stroke="rgb(255,255,255)" stroke-width="1" opacity="0.5019607843137255" d="M 497.5 76 L 498 79.5 L 497 79.5 L 497.5 76 Z " /><path fill="rgb(255,255,255)" stroke="rgb(255,255,255)" stroke-width="1" opacity="0.5019607843137255" d="M 526.5 77 L 527 79.5 L 525.5 83 L 525 80.5 L 526.5 77 Z " /><path fill="rgb(255,255,255)" stroke="rgb(255,255,255)" stroke-width="1" opacity="0.5019607843137255" d="M 576.5 77 L 581 77.5 L 576.5 78 L 576.5 77 Z " /><path fill="rgb(255,255,255)" stroke="rgb(255,255,255)" stroke-width="1" opacity="0.5019607843137255" d="M 168.5 78 L 169 79.5 L 167.5 82 L 167 80.5 L 168.5 78 Z " /><path fill="rgb(255,255,255)" stroke="rgb(255,255,255)" stroke-width="1" opacity="0.5019607843137255" d="M 182.5 78 L 185 84.5 L 184 84.5 L 182.5 78 Z " /><path fill="rgb(255,255,255)" stroke="rgb(255,255,255)" stroke-width="1" opacity="0.5019607843137255" d="M 503.5 78 L 504 80.5 L 503 80.5 L 503.5 78 Z " /><path fill="rgb(255,255,255)" stroke="rgb(255,255,255)" stroke-width="1" opacity="0.5019607843137255" d="M 531.5 78 L 532 80.5 L 531 80.5 L 531.5 78 Z " /><path fill="rgb(255,255,255)" stroke="rgb(255,255,255)" stroke-width="1" opacity="0.5019607843137255" d="M 573.5 78 L 575 78.5 L 568.5 84 L 573.5 78 Z " /><path fill="rgb(255,255,255)" stroke="rgb(255,255,255)" stroke-width="1" opacity="0.5019607843137255" d="M 582.5 78 L 585 79.5 L 583.5 79 L 582.5 78 Z " /><path fill="rgb(255,255,255)" stroke="rgb(255,255,255)" stroke-width="1" opacity="0.5019607843137255" d="M 141.5 80 L 142 81.5 L 139.5 86 L 139 84.5 L 141.5 80 Z " /><path fill="rgb(255,255,255)" stroke="rgb(255,255,255)" stroke-width="1" opacity="0.5019607843137255" d="M 586.5 80 Q 592.9 85.1 595 94.5 L 594 94.5 Q 591.4 85.1 586.5 80 Z " /><path fill="rgb(255,255,255)" stroke="rgb(255,255,255)" stroke-width="1" opacity="0.5019607843137255" d="M 496.5 81 L 497 84.5 L 496 84.5 L 496.5 81 Z " /><path fill="rgb(255,255,255)" stroke="rgb(255,255,255)" stroke-width="1" opacity="0.5019607843137255" d="M 577.5 81 L 581 81.5 L 577.5 82 L 577.5 81 Z " /><path fill="rgb(255,255,255)" stroke="rgb(255,255,255)" stroke-width="1" opacity="0.5019607843137255" d="M 502.5 82 L 503 84.5 L 502 84.5 L 502.5 82 Z " /><path fill="rgb(255,255,255)" stroke="rgb(255,255,255)" stroke-width="1" opacity="0.5019607843137255" d="M 530.5 82 L 531 85.5 L 530 85.5 L 530.5 82 Z " /><path fill="rgb(255,255,255)" stroke="rgb(255,255,255)" stroke-width="1" opacity="0.5019607843137255" d="M 574.5 82 L 576 82.5 L 571.5 86 L 574.5 82 Z " /><path fill="rgb(255,255,255)" stroke="rgb(255,255,255)" stroke-width="1" opacity="0.5019607843137255" d="M 582.5 82 L 586 84.5 L 589 91.5 L 588 91.5 Q 587.3 85.7 583.5 83 L 582.5 82 Z " /><path fill="rgb(255,255,255)" stroke="rgb(255,255,255)" stroke-width="1" opacity="0.5019607843137255" d="M 601.5 82 L 605 82.5 L 601 83 L 600 86.5 L 602.5 85 L 606 86.5 L 605.5 89 L 605 86 L 601 87.5 Q 601.7 90.1 599 89 Q 598.2 84 601.5 82 Z " /><path fill="rgb(255,255,255)" stroke="rgb(255,255,255)" stroke-width="1" opacity="0.5019607843137255" d="M 166.5 83 L 167 84.5 L 165.5 87 L 165 85.5 L 166.5 83 Z " /><path fill="rgb(255,255,255)" stroke="rgb(255,255,255)" stroke-width="1" opacity="0.5019607843137255" d="M 319.5 83 Q 326.9 85.1 331 90.5 L 336 101.5 L 335 101.5 Q 333.1 92.9 327.5 88 L 319.5 84 L 319.5 83 Z " /><path fill="rgb(255,255,255)" stroke="rgb(255,255,255)" stroke-width="1" opacity="0.5019607843137255" d="M 524.5 84 L 525 87.5 L 524 87.5 L 524.5 84 Z " /><path fill="rgb(255,255,255)" stroke="rgb(255,255,255)" stroke-width="1" opacity="0.5019607843137255" d="M 567.5 85 L 567 86.5 L 564.5 94 L 564 91.5 L 567.5 85 Z " /><path fill="rgb(255,255,255)" stroke="rgb(255,255,255)" stroke-width="1" opacity="0.5019607843137255" d="M 185.5 86 L 187 89.5 L 186 89.5 L 185.5 86 Z " /><path fill="rgb(255,255,255)" stroke="rgb(255,255,255)" stroke-width="1" opacity="0.5019607843137255" d="M 495.5 86 L 496 89.5 L 495 89.5 L 495.5 86 Z " /><path fill="rgb(255,255,255)" stroke="rgb(255,255,255)" stroke-width="1" opacity="0.5019607843137255" d="M 501.5 86 L 502 88.5 L 501 88.5 L 501.5 86 Z " /><path fill="rgb(255,255,255)" stroke="rgb(255,255,255)" stroke-width="1" opacity="0.5019607843137255" d="M 651.5 86 L 653 86.5 L 649.5 89 L 651.5 86 Z " /><path fill="rgb(255,255,255)" stroke="rgb(255,255,255)" stroke-width="1" opacity="0.5019607843137255" d="M 657.5 86 L 660 87.5 L 658.5 87 L 657.5 86 Z " /><path fill="rgb(255,255,255)" stroke="rgb(255,255,255)" stroke-width="1" opacity="0.5019607843137255" d="M 138.5 87 L 139 88.5 L 136.5 93 L 136 91.5 L 138.5 87 Z " /><path fill="rgb(255,255,255)" stroke="rgb(255,255,255)" stroke-width="1" opacity="0.5019607843137255" d="M 213.5 87 L 218 97.5 L 217 97.5 L 213.5 87 Z " /><path fill="rgb(255,255,255)" stroke="rgb(255,255,255)" stroke-width="1" opacity="0.5019607843137255" d="M 529.5 87 L 530 91.5 L 529 91.5 L 529.5 87 Z " /><path fill="rgb(255,255,255)" stroke="rgb(255,255,255)" stroke-width="1" opacity="0.5019607843137255" d="M 570.5 87 L 570 88.5 L 567.5 95 L 567 92.5 L 570.5 87 Z " /><path fill="rgb(255,255,255)" stroke="rgb(255,255,255)" stroke-width="1" opacity="0.5019607843137255" d="M 164.5 88 L 165 89.5 L 163.5 92 L 163 90.5 L 164.5 88 Z " /><path fill="rgb(255,255,255)" stroke="rgb(255,255,255)" stroke-width="1" opacity="0.5019607843137255" d="M 661.5 88 L 663 90.5 L 662 90.5 L 661.5 88 Z " /><path fill="rgb(255,255,255)" stroke="rgb(255,255,255)" stroke-width="1" opacity="0.5019607843137255" d="M 523.5 89 L 524 91.5 L 523 91.5 L 523.5 89 Z " /><path fill="rgb(255,255,255)" stroke="rgb(255,255,255)" stroke-width="1" opacity="0.5019607843137255" d="M 500.5 90 L 501 92 L 508 92.5 L 500 93 L 500.5 90 Z " /><path fill="rgb(255,255,255)" stroke="rgb(255,255,255)" stroke-width="1" opacity="0.5019607843137255" d="M 576.5 90 L 579 91.5 Q 579.8 93.8 577.5 93 L 573 96.5 L 577.5 91 L 571 95.5 L 568.5 99 L 570 96.5 L 574.5 91 L 576.5 90 Z " /><path fill="rgb(255,255,255)" stroke="rgb(255,255,255)" stroke-width="1" opacity="0.5019607843137255" d="M 606.5 90 L 607 102.5 L 606 102.5 L 606.5 90 Z " /><path fill="rgb(255,255,255)" stroke="rgb(255,255,255)" stroke-width="1" opacity="0.5019607843137255" d="M 609.5 90 L 610 106.5 L 609 106.5 L 609.5 90 Z " /><path fill="rgb(255,255,255)" stroke="rgb(255,255,255)" stroke-width="1" opacity="0.5019607843137255" d="M 187.5 91 L 190 99 L 161.5 99 L 161 96.5 L 162 96.5 L 162.5 98 L 189 98 L 187.5 91 Z " /><path fill="rgb(255,255,255)" stroke="rgb(255,255,255)" stroke-width="1" opacity="0.5019607843137255" d="M 655.5 91 L 657 91.5 L 652.5 95 L 655.5 91 Z " /><path fill="rgb(255,255,255)" stroke="rgb(255,255,255)" stroke-width="1" opacity="0.5019607843137255" d="M 659.5 91 L 663 92.5 L 661.5 93 L 659.5 91 Z " /><path fill="rgb(255,255,255)" stroke="rgb(255,255,255)" stroke-width="1" opacity="0.5019607843137255" d="M 489.5 92 L 495 92.5 L 489.5 93 L 489.5 92 Z " /><path fill="rgb(255,255,255)" stroke="rgb(255,255,255)" stroke-width="1" opacity="0.5019607843137255" d="M 647.5 92 L 648 93.5 L 645.5 101 L 645 97.5 L 647.5 92 Z " /><path fill="rgb(255,255,255)" stroke="rgb(255,255,255)" stroke-width="1" opacity="0.5019607843137255" d="M 484 93 L 486 93.5 L 485 95.5 L 485.5 97 L 484 93 Z " /><path fill="rgb(255,255,255)" stroke="rgb(255,255,255)" stroke-width="1" opacity="0.5019607843137255" d="M 509.5 93 L 514 93.5 L 509.5 94 L 509.5 93 Z " /><path fill="rgb(255,255,255)" stroke="rgb(255,255,255)" stroke-width="1" opacity="0.5019607843137255" d="M 589.5 93 L 590 96.5 L 589 96.5 L 589.5 93 Z " /><path fill="rgb(255,255,255)" stroke="rgb(255,255,255)" stroke-width="1" opacity="0.5019607843137255" d="M 135.5 94 L 136 95.5 L 133.5 100 L 133 98.5 L 135.5 94 Z " /><path fill="rgb(255,255,255)" stroke="rgb(255,255,255)" stroke-width="1" opacity="0.5019607843137255" d="M 271 94 L 297 94.5 L 272 95 L 271.5 117 L 271 94 Z " /><path fill="rgb(255,255,255)" stroke="rgb(255,255,255)" stroke-width="1" opacity="0.5019607843137255" d="M 515.5 94 L 516 96 L 505 95.5 L 514.5 95 L 515.5 94 Z " /><path fill="rgb(255,255,255)" stroke="rgb(255,255,255)" stroke-width="1" opacity="0.5019607843137255" d="M 522.5 94 L 523 98.5 L 522 98.5 L 522.5 94 Z " /><path fill="rgb(255,255,255)" stroke="rgb(255,255,255)" stroke-width="1" opacity="0.5019607843137255" d="M 528.5 94 L 529 98.5 L 528 98.5 L 528.5 94 Z " /><path fill="rgb(255,255,255)" stroke="rgb(255,255,255)" stroke-width="1" opacity="0.5019607843137255" d="M 298.5 95 Q 305.6 95.8 308 101.5 L 307.5 104 Q 307 98.5 302.5 97 L 298.5 96 L 298.5 95 Z " /><path fill="rgb(255,255,255)" stroke="rgb(255,255,255)" stroke-width="1" opacity="0.5019607843137255" d="M 563.5 95 L 564 97.5 L 563 97.5 L 563.5 95 Z " /><path fill="rgb(255,255,255)" stroke="rgb(255,255,255)" stroke-width="1" opacity="0.5019607843137255" d="M 499 96 L 501 96.5 L 499.5 99 L 499 96 Z " /><path fill="rgb(255,255,255)" stroke="rgb(255,255,255)" stroke-width="1" opacity="0.5019607843137255" d="M 566.5 96 L 568 100.5 L 566 101.5 L 566.5 96 Z " /><path fill="rgb(255,255,255)" stroke="rgb(255,255,255)" stroke-width="1" opacity="0.5019607843137255" d="M 595.5 96 L 596 99.5 L 595 99.5 L 595.5 96 Z " /><path fill="rgb(255,255,255)" stroke="rgb(255,255,255)" stroke-width="1" opacity="0.5019607843137255" d="M 651.5 96 L 651 97.5 L 650.5 99 L 650 97.5 L 651.5 96 Z " /><path fill="rgb(255,255,255)" stroke="rgb(255,255,255)" stroke-width="1" opacity="0.5019607843137255" d="M 38.5 97 L 80 97.5 L 38 98 L 37.5 138 L 37 98.5 L 38.5 97 Z " /><path fill="rgb(255,255,255)" stroke="rgb(255,255,255)" stroke-width="1" opacity="0.5019607843137255" d="M 493.5 98 L 494 102.5 L 493 102.5 L 493.5 98 Z " /><path fill="rgb(255,255,255)" stroke="rgb(255,255,255)" stroke-width="1" opacity="0.5019607843137255" d="M 572.5 98 L 572 99.5 L 570.5 103 L 570 101.5 L 572.5 98 Z " /><path fill="rgb(255,255,255)" stroke="rgb(255,255,255)" stroke-width="1" opacity="0.5019607843137255" d="M 590.5 98 L 591 105.5 L 590 105.5 L 590.5 98 Z " /><path fill="rgb(255,255,255)" stroke="rgb(255,255,255)" stroke-width="1" opacity="0.5019607843137255" d="M 218.5 99 L 221 104.5 L 220 104.5 L 218.5 99 Z " /><path fill="rgb(255,255,255)" stroke="rgb(255,255,255)" stroke-width="1" opacity="0.5019607843137255" d="M 498.5 100 L 499 103.5 L 498 103.5 L 498.5 100 Z " /><path fill="rgb(255,255,255)" stroke="rgb(255,255,255)" stroke-width="1" opacity="0.5019607843137255" d="M 521.5 100 L 522 107.5 L 521 107.5 L 521.5 100 Z " /><path fill="rgb(255,255,255)" stroke="rgb(255,255,255)" stroke-width="1" opacity="0.5019607843137255" d="M 562.5 100 L 563 112.5 L 562 112.5 L 562.5 100 Z " /><path fill="rgb(255,255,255)" stroke="rgb(255,255,255)" stroke-width="1" opacity="0.5019607843137255" d="M 649.5 100 L 650 101.5 L 648.5 105 L 648 102.5 L 649.5 100 Z " /><path fill="rgb(255,255,255)" stroke="rgb(255,255,255)" stroke-width="1" opacity="0.5019607843137255" d="M 132.5 101 L 133 102.5 L 130.5 107 L 130 105.5 L 132.5 101 Z " /><path fill="rgb(255,255,255)" stroke="rgb(255,255,255)" stroke-width="1" opacity="0.5019607843137255" d="M 527.5 101 L 528 107.5 L 527 107.5 L 527.5 101 Z " /><path fill="rgb(255,255,255)" stroke="rgb(255,255,255)" stroke-width="1" opacity="0.5019607843137255" d="M 644.5 102 L 645 105.5 L 644 105.5 L 644.5 102 Z " /><path fill="rgb(255,255,255)" stroke="rgb(255,255,255)" stroke-width="1" opacity="0.5019607843137255" d="M 336.5 104 L 337 112.5 L 336 112.5 L 336.5 104 Z " /><path fill="rgb(255,255,255)" stroke="rgb(255,255,255)" stroke-width="1" opacity="0.5019607843137255" d="M 569.5 104 L 570 105.5 L 568.5 109 L 568 106.5 L 569.5 104 Z " /><path fill="rgb(255,255,255)" stroke="rgb(255,255,255)" stroke-width="1" opacity="0.5019607843137255" d="M 596.5 104 L 597 107.5 L 596 107.5 L 596.5 104 Z " /><path fill="rgb(255,255,255)" stroke="rgb(255,255,255)" stroke-width="1" opacity="0.5019607843137255" d="M 492.5 105 L 493 108.5 L 492 108.5 L 492.5 105 Z " /><path fill="rgb(255,255,255)" stroke="rgb(255,255,255)" stroke-width="1" opacity="0.5019607843137255" d="M 605.5 105 L 606 109.5 L 605 109.5 L 605.5 105 Z " /><path fill="rgb(255,255,255)" stroke="rgb(255,255,255)" stroke-width="1" opacity="0.5019607843137255" d="M 627 105 L 629 105.5 L 626.5 110 L 626 107.5 L 627 105 Z " /><path fill="rgb(255,255,255)" stroke="rgb(255,255,255)" stroke-width="1" opacity="0.5019607843137255" d="M 630.5 105 L 633 106.5 L 632.5 108 L 632 106 L 630.5 105 Z " /><path fill="rgb(255,255,255)" stroke="rgb(255,255,255)" stroke-width="1" opacity="0.5019607843137255" d="M 221.5 106 L 226 116.5 L 225 116.5 L 221.5 106 Z " /><path fill="rgb(255,255,255)" stroke="rgb(255,255,255)" stroke-width="1" opacity="0.5019607843137255" d="M 497.5 106 L 498 109.5 L 497 109.5 L 497.5 106 Z " /><path fill="rgb(255,255,255)" stroke="rgb(255,255,255)" stroke-width="1" opacity="0.5019607843137255" d="M 647.5 106 L 648 108.5 L 647 108.5 L 647.5 106 Z " /><path fill="rgb(255,255,255)" stroke="rgb(255,255,255)" stroke-width="1" opacity="0.5019607843137255" d="M 307.5 107 L 308 109.5 L 303.5 115 L 300.5 116 L 300.5 115 L 306 111.5 L 307.5 107 Z " /><path fill="rgb(255,255,255)" stroke="rgb(255,255,255)" stroke-width="1" opacity="0.5019607843137255" d="M 643.5 107 L 644 111.5 L 643 111.5 L 643.5 107 Z " /><path fill="rgb(255,255,255)" stroke="rgb(255,255,255)" stroke-width="1" opacity="0.5019607843137255" d="M 129.5 108 L 130 109.5 L 127.5 114 L 127 112.5 L 129.5 108 Z " /><path fill="rgb(255,255,255)" stroke="rgb(255,255,255)" stroke-width="1" opacity="0.5019607843137255" d="M 608.5 109 L 609 118.5 L 608 118.5 L 608.5 109 Z " /><path fill="rgb(255,255,255)" stroke="rgb(255,255,255)" stroke-width="1" opacity="0.5019607843137255" d="M 646.5 110 L 647 113.5 L 646 113.5 L 646.5 110 Z " /><path fill="rgb(255,255,255)" stroke="rgb(255,255,255)" stroke-width="1" opacity="0.5019607843137255" d="M 491.5 111 L 492 114.5 L 491 114.5 L 491.5 111 Z " /><path fill="rgb(255,255,255)" stroke="rgb(255,255,255)" stroke-width="1" opacity="0.5019607843137255" d="M 496.5 111 L 497 114.5 L 496 114.5 L 496.5 111 Z " /><path fill="rgb(255,255,255)" stroke="rgb(255,255,255)" stroke-width="1" opacity="0.5019607843137255" d="M 526.5 111 L 527 131.5 L 526 131.5 L 526.5 111 Z " /><path fill="rgb(255,255,255)" stroke="rgb(255,255,255)" stroke-width="1" opacity="0.5019607843137255" d="M 590.5 111 L 591 118.5 L 590 118.5 L 590.5 111 Z " /><path fill="rgb(255,255,255)" stroke="rgb(255,255,255)" stroke-width="1" opacity="0.5019607843137255" d="M 595.5 111 L 596 115.5 L 595 115.5 L 595.5 111 Z " /><path fill="rgb(255,255,255)" stroke="rgb(255,255,255)" stroke-width="1" opacity="0.5019607843137255" d="M 604.5 111 L 605 116.5 L 604 116.5 L 604.5 111 Z " /><path fill="rgb(255,255,255)" stroke="rgb(255,255,255)" stroke-width="1" opacity="0.5019607843137255" d="M 633.5 111 L 634 126.5 L 635 130 L 639 128.5 L 639.5 127 L 640 128.5 Q 639.5 131.5 635.5 131 L 633 126.5 L 633.5 111 Z " /><path fill="rgb(255,255,255)" stroke="rgb(255,255,255)" stroke-width="1" opacity="0.5019607843137255" d="M 642.5 113 L 643 118.5 L 642 118.5 L 642.5 113 Z " /><path fill="rgb(255,255,255)" stroke="rgb(255,255,255)" stroke-width="1" opacity="0.5019607843137255" d="M 561.5 114 L 562 117.5 L 561 117.5 L 561.5 114 Z " /><path fill="rgb(255,255,255)" stroke="rgb(255,255,255)" stroke-width="1" opacity="0.5019607843137255" d="M 567.5 114 Q 568.1 119.9 573 121.5 L 567 116.5 L 567.5 114 Z " /><path fill="rgb(255,255,255)" stroke="rgb(255,255,255)" stroke-width="1" opacity="0.5019607843137255" d="M 624.5 114 L 625 116.5 L 621.5 125 L 621 123.5 L 624.5 114 Z " /><path fill="rgb(255,255,255)" stroke="rgb(255,255,255)" stroke-width="1" opacity="0.5019607843137255" d="M 126.5 115 L 127 116.5 L 124.5 121 L 124 119.5 L 126.5 115 Z " /><path fill="rgb(255,255,255)" stroke="rgb(255,255,255)" stroke-width="1" opacity="0.5019607843137255" d="M 335.5 115 L 336 117.5 L 334.5 120 L 334 118.5 L 335.5 115 Z " /><path fill="rgb(255,255,255)" stroke="rgb(255,255,255)" stroke-width="1" opacity="0.5019607843137255" d="M 645.5 115 L 646 118.5 L 645 118.5 L 645.5 115 Z " /><path fill="rgb(255,255,255)" stroke="rgb(255,255,255)" stroke-width="1" opacity="0.5019607843137255" d="M 294.5 116 L 299 116.5 L 294.5 117 L 294.5 116 Z " /><path fill="rgb(255,255,255)" stroke="rgb(255,255,255)" stroke-width="1" opacity="0.5019607843137255" d="M 495.5 116 L 496 119.5 L 495 119.5 L 495.5 116 Z " /><path fill="rgb(255,255,255)" stroke="rgb(255,255,255)" stroke-width="1" opacity="0.5019607843137255" d="M 490.5 117 L 491 120.5 L 490 120.5 L 490.5 117 Z " /><path fill="rgb(255,255,255)" stroke="rgb(255,255,255)" stroke-width="1" opacity="0.5019607843137255" d="M 594.5 117 L 595 120.5 L 589.5 132 L 590 130.5 L 594.5 117 Z " /><path fill="rgb(255,255,255)" stroke="rgb(255,255,255)" stroke-width="1" opacity="0.5019607843137255" d="M 226.5 118 L 231 128.5 L 230 128.5 L 226.5 118 Z " /><path fill="rgb(255,255,255)" stroke="rgb(255,255,255)" stroke-width="1" opacity="0.5019607843137255" d="M 566.5 118 L 575 124.5 L 573.5 125 L 566.5 118 Z " /><path fill="rgb(255,255,255)" stroke="rgb(255,255,255)" stroke-width="1" opacity="0.5019607843137255" d="M 626.5 118 Q 628.6 128.4 635.5 134 L 638 134.5 L 635.5 135 Q 628.9 130.1 626.5 121 L 624.5 125 L 624 123.5 L 626.5 118 Z " /><path fill="rgb(255,255,255)" stroke="rgb(255,255,255)" stroke-width="1" opacity="0.5019607843137255" d="M 152 119 L 197.5 119 L 199 120.5 L 200 123.5 L 199 123.5 L 198 120 L 153.5 120 L 152 121.5 L 151.5 123 L 151 121.5 L 152 119 Z " /><path fill="rgb(255,255,255)" stroke="rgb(255,255,255)" stroke-width="1" opacity="0.5019607843137255" d="M 603.5 119 L 604 134.5 L 603 134.5 L 603.5 119 Z " /><path fill="rgb(255,255,255)" stroke="rgb(255,255,255)" stroke-width="1" opacity="0.5019607843137255" d="M 560.5 120 L 561 124.5 L 560 124.5 L 560.5 120 Z " /><path fill="rgb(255,255,255)" stroke="rgb(255,255,255)" stroke-width="1" opacity="0.5019607843137255" d="M 565.5 120 L 566 122.5 L 565 122.5 L 565.5 120 Z " /><path fill="rgb(255,255,255)" stroke="rgb(255,255,255)" stroke-width="1" opacity="0.5019607843137255" d="M 589.5 120 L 590 123.5 L 587.5 129 L 587 127.5 L 589.5 120 Z " /><path fill="rgb(255,255,255)" stroke="rgb(255,255,255)" stroke-width="1" opacity="0.5019607843137255" d="M 641.5 120 L 642 122.5 L 641 122.5 L 641.5 120 Z " /><path fill="rgb(255,255,255)" stroke="rgb(255,255,255)" stroke-width="1" opacity="0.5019607843137255" d="M 644.5 120 L 645 124.5 L 644 124.5 L 644.5 120 Z " /><path fill="rgb(255,255,255)" stroke="rgb(255,255,255)" stroke-width="1" opacity="0.5019607843137255" d="M 333.5 121 L 333 122.5 L 325.5 131 L 332 123.5 L 333.5 121 Z " /><path fill="rgb(255,255,255)" stroke="rgb(255,255,255)" stroke-width="1" opacity="0.5019607843137255" d="M 494.5 121 L 495 124.5 L 494 124.5 L 494.5 121 Z " /><path fill="rgb(255,255,255)" stroke="rgb(255,255,255)" stroke-width="1" opacity="0.5019607843137255" d="M 123.5 122 L 124 123.5 L 121.5 128 L 121 126.5 L 123.5 122 Z " /><path fill="rgb(255,255,255)" stroke="rgb(255,255,255)" stroke-width="1" opacity="0.5019607843137255" d="M 574.5 122 L 577 122.5 L 574.5 123 L 574.5 122 Z " /><path fill="rgb(255,255,255)" stroke="rgb(255,255,255)" stroke-width="1" opacity="0.5019607843137255" d="M 581.5 122 L 585.5 123 L 587 122.5 L 583.5 125 L 583.5 124 L 585 123.5 Q 580.6 123.9 581.5 122 Z " /><path fill="rgb(255,255,255)" stroke="rgb(255,255,255)" stroke-width="1" opacity="0.5019607843137255" d="M 489.5 123 L 490 126.5 L 489 126.5 L 489.5 123 Z " /><path fill="rgb(255,255,255)" stroke="rgb(255,255,255)" stroke-width="1" opacity="0.5019607843137255" d="M 521.5 123 L 522 128.5 L 521 128.5 L 521.5 123 Z " /><path fill="rgb(255,255,255)" stroke="rgb(255,255,255)" stroke-width="1" opacity="0.5019607843137255" d="M 150.5 124 L 151 125.5 L 149.5 128 L 149 126.5 L 150.5 124 Z " /><path fill="rgb(255,255,255)" stroke="rgb(255,255,255)" stroke-width="1" opacity="0.5019607843137255" d="M 608.5 124 L 609 130.5 L 608 130.5 L 608.5 124 Z " /><path fill="rgb(255,255,255)" stroke="rgb(255,255,255)" stroke-width="1" opacity="0.5019607843137255" d="M 200.5 125 L 203 131.5 L 202 131.5 L 200.5 125 Z " /><path fill="rgb(255,255,255)" stroke="rgb(255,255,255)" stroke-width="1" opacity="0.5019607843137255" d="M 576.5 125 L 582 125.5 L 576.5 126 L 576.5 125 Z " /><path fill="rgb(255,255,255)" stroke="rgb(255,255,255)" stroke-width="1" opacity="0.5019607843137255" d="M 623.5 126 L 624 127.5 L 622 128.5 L 623.5 126 Z " /><path fill="rgb(255,255,255)" stroke="rgb(255,255,255)" stroke-width="1" opacity="0.5019607843137255" d="M 643.5 126 L 644 128.5 L 643 128.5 L 643.5 126 Z " /><path fill="rgb(255,255,255)" stroke="rgb(255,255,255)" stroke-width="1" opacity="0.5019607843137255" d="M 493.5 127 L 494 129.5 L 493 129.5 L 493.5 127 Z " /><path fill="rgb(255,255,255)" stroke="rgb(255,255,255)" stroke-width="1" opacity="0.5019607843137255" d="M 566.5 127 L 569 134.5 L 567 133.5 L 566.5 127 Z " /><path fill="rgb(255,255,255)" stroke="rgb(255,255,255)" stroke-width="1" opacity="0.5019607843137255" d="M 488.5 128 L 489 131.5 L 488 131.5 L 488.5 128 Z " /><path fill="rgb(255,255,255)" stroke="rgb(255,255,255)" stroke-width="1" opacity="0.5019607843137255" d="M 561.5 128 L 562 130.5 L 561 130.5 L 561.5 128 Z " /><path fill="rgb(255,255,255)" stroke="rgb(255,255,255)" stroke-width="1" opacity="0.5019607843137255" d="M 120.5 129 L 121 130.5 L 118.5 135 L 118 133.5 L 120.5 129 Z " /><path fill="rgb(255,255,255)" stroke="rgb(255,255,255)" stroke-width="1" opacity="0.5019607843137255" d="M 148.5 129 L 149 130.5 L 147.5 133 L 147 131.5 L 148.5 129 Z " /><path fill="rgb(255,255,255)" stroke="rgb(255,255,255)" stroke-width="1" opacity="0.5019607843137255" d="M 231.5 130 L 234 135.5 L 233 135.5 L 231.5 130 Z " /><path fill="rgb(255,255,255)" stroke="rgb(255,255,255)" stroke-width="1" opacity="0.5019607843137255" d="M 586.5 130 L 586 131.5 L 580.5 139 L 576.5 140 L 576.5 139 Q 581.3 138.8 583 135.5 L 586.5 130 Z " /><path fill="rgb(255,255,255)" stroke="rgb(255,255,255)" stroke-width="1" opacity="0.5019607843137255" d="M 618.5 130 L 618 131.5 L 613.5 137 L 610 135.5 L 609 132.5 L 610 132.5 L 611 136 Q 615.7 136.8 617 132.5 L 618.5 130 Z " /><path fill="rgb(255,255,255)" stroke="rgb(255,255,255)" stroke-width="1" opacity="0.5019607843137255" d="M 621.5 130 L 621 131.5 L 614.5 140 L 618 135.5 L 621.5 130 Z " /><path fill="rgb(255,255,255)" stroke="rgb(255,255,255)" stroke-width="1" opacity="0.5019607843137255" d="M 642.5 130 L 643 131.5 L 640.5 135 L 639 134.5 L 641 134 L 642.5 130 Z " /><path fill="rgb(255,255,255)" stroke="rgb(255,255,255)" stroke-width="1" opacity="0.5019607843137255" d="M 323.5 131 L 322.5 133 L 317.5 135 L 317.5 134 L 323.5 131 Z " /><path fill="rgb(255,255,255)" stroke="rgb(255,255,255)" stroke-width="1" opacity="0.5019607843137255" d="M 492.5 131 L 493 134.5 L 491.5 138 L 491 135.5 L 492.5 131 Z " /><path fill="rgb(255,255,255)" stroke="rgb(255,255,255)" stroke-width="1" opacity="0.5019607843137255" d="M 522.5 131 L 523 133.5 L 522 133.5 L 522.5 131 Z " /><path fill="rgb(255,255,255)" stroke="rgb(255,255,255)" stroke-width="1" opacity="0.5019607843137255" d="M 562.5 132 L 567 140.5 L 565 139.5 Q 560.8 136.9 562.5 132 Z " /><path fill="rgb(255,255,255)" stroke="rgb(255,255,255)" stroke-width="1" opacity="0.5019607843137255" d="M 203.5 133 L 205 137.5 L 204 137.5 L 203.5 133 Z " /><path fill="rgb(255,255,255)" stroke="rgb(255,255,255)" stroke-width="1" opacity="0.5019607843137255" d="M 487.5 133 L 488 135.5 L 487 135.5 L 487.5 133 Z " /><path fill="rgb(255,255,255)" stroke="rgb(255,255,255)" stroke-width="1" opacity="0.5019607843137255" d="M 588.5 133 L 588 134.5 L 581.5 142 L 578.5 143 L 578.5 142 Q 584.6 140.6 587 135.5 L 588.5 133 Z " /><path fill="rgb(255,255,255)" stroke="rgb(255,255,255)" stroke-width="1" opacity="0.5019607843137255" d="M 527.5 134 L 528 137.5 L 527 137.5 L 527.5 134 Z " /><path fill="rgb(255,255,255)" stroke="rgb(255,255,255)" stroke-width="1" opacity="0.5019607843137255" d="M 523.5 135 Q 524.7 142.3 529 146.5 L 526 144.5 L 523 137.5 L 523.5 135 Z " /><path fill="rgb(255,255,255)" stroke="rgb(255,255,255)" stroke-width="1" opacity="0.5019607843137255" d="M 309.5 136 L 313 136.5 L 309.5 137 L 309.5 136 Z " /><path fill="rgb(255,255,255)" stroke="rgb(255,255,255)" stroke-width="1" opacity="0.5019607843137255" d="M 569.5 136 L 571.5 139 L 569.5 136 Z " /><path fill="rgb(255,255,255)" stroke="rgb(255,255,255)" stroke-width="1" opacity="0.5019607843137255" d="M 302.5 137 L 308 137.5 L 302.5 138 L 302.5 137 Z " /><path fill="rgb(255,255,255)" stroke="rgb(255,255,255)" stroke-width="1" opacity="0.5019607843137255" d="M 486.5 137 L 487 139.5 L 486 139.5 L 486.5 137 Z " /><path fill="rgb(255,255,255)" stroke="rgb(255,255,255)" stroke-width="1" opacity="0.5019607843137255" d="M 490.5 139 L 491 141.5 L 490 141.5 L 490.5 139 Z " /><path fill="rgb(255,255,255)" stroke="rgb(255,255,255)" stroke-width="1" opacity="0.5019607843137255" d="M 528.5 139 L 529 141.5 L 528 141.5 L 528.5 139 Z " /><path fill="rgb(255,255,255)" stroke="rgb(255,255,255)" stroke-width="1" opacity="0.5019607843137255" d="M 605.5 139 Q 606.5 142 611.5 141 L 613 140.5 Q 612 143 607.5 142 L 605.5 139 Z " /><path fill="rgb(255,255,255)" stroke="rgb(255,255,255)" stroke-width="1" opacity="0.5019607843137255" d="M 568.5 141 L 571 142.5 L 569.5 143 L 568.5 141 Z " /><path fill="rgb(255,255,255)" stroke="rgb(255,255,255)" stroke-width="1" opacity="0.5019607843137255" d="M 529.5 143 L 533.5 148 L 535 148.5 L 531.5 150 L 530.5 148 L 532.5 149 L 529 144.5 L 529.5 143 Z " /><path fill="rgb(255,255,255)" stroke="rgb(255,255,255)" stroke-width="1" opacity="0.5019607843137255" d="M 572.5 143 L 577 143.5 L 572.5 144 L 572.5 143 Z " /><path fill="rgb(255,255,255)" stroke="rgb(255,255,255)" stroke-width="1" opacity="0.5019607843137255" d="M 487.5 149 L 488 150.5 L 486.5 153 L 486 151.5 L 487.5 149 Z " /><path fill="rgb(255,255,255)" stroke="rgb(255,255,255)" stroke-width="1" opacity="0.5019607843137255" d="M 482.5 150 L 483 151.5 L 481.5 154 L 481 152.5 L 482.5 150 Z " /><path fill="rgb(255,255,255)" stroke="rgb(255,255,255)" stroke-width="1" opacity="0.5019607843137255" d="M 485.5 154 L 486 155.5 L 480.5 165 L 481 163.5 L 485.5 154 Z " /><path fill="rgb(255,255,255)" stroke="rgb(255,255,255)" stroke-width="1" opacity="0.5019607843137255" d="M 479.5 157 L 480 158.5 L 469.5 173 L 462.5 177 L 462.5 176 L 472 169.5 L 479.5 157 Z " /><path fill="rgb(255,255,255)" stroke="rgb(255,255,255)" stroke-width="1" opacity="0.5019607843137255" d="M 479.5 166 L 478.5 168 L 479.5 166 Z " /><path fill="rgb(255,255,255)" stroke="rgb(255,255,255)" stroke-width="1" opacity="0.5019607843137255" d="M 477.5 169 L 471.5 176 Q 467.7 179.7 460.5 180 L 460.5 179 Q 472.7 177.7 477.5 169 Z " /><path fill="rgb(255,255,255)" stroke="rgb(255,255,255)" stroke-width="1" opacity="0.5019607843137255" d="M 452.5 171 L 455 171.5 L 452 172 Q 450.8 177.5 454.5 179 L 458 179.5 L 454.5 180 Q 450 179 451 172.5 L 452.5 171 Z " /><path fill="rgb(255,255,255)" stroke="rgb(255,255,255)" stroke-width="1" opacity="0.5019607843137255" d="M 456.5 172 L 459 176.5 L 457 175.5 L 456.5 172 Z " /><path fill="rgb(255,255,255)" stroke="rgb(255,255,255)" stroke-width="1" opacity="1" d="M 11 33 L 37 33 L 37 76 L 80 76 L 80 33 L 107 33 L 107 137.5 L 106.5 138 L 80 138 L 80 97 L 38.5 97 L 37 98.5 L 37 138 L 11.5 138 L 11 137.5 L 11 33 Z " /><path fill="rgb(255,255,255)" stroke="rgb(255,255,255)" stroke-width="1" opacity="1" d="M 162 33 L 189.5 33 L 191 34.5 L 234 138 L 205.5 138 L 205 135.5 L 197.5 119 L 152.5 119 L 152 120.5 L 144.5 138 L 118.5 138 L 118 135.5 L 162 33 Z M 176 61 L 161 97 L 162 99 L 190 99 L 181 73 L 176 61 Z " /><path fill="rgb(255,255,255)" stroke="rgb(255,255,255)" stroke-width="1" opacity="1" d="M 244 33 L 300.5 33 Q 302 35.5 307.5 34 Q 321.9 36.6 329 46.5 Q 333.2 51.8 333 61.5 Q 331 73.5 322.5 79 L 315 82.5 Q 324.6 84.4 330 90.5 L 336 102.5 L 336 114.5 Q 332.9 125.4 324.5 131 L 313.5 136 L 302.5 137 L 301.5 138 L 244 138 L 244 33 Z M 271 54 L 271 75 L 297 75 L 300 74 L 305 68 L 304 59 L 298 54 L 271 54 Z M 271 94 L 271 117 L 299 117 L 304 115 Q 310 112 308 102 Q 305 95 297 94 L 271 94 Z " /><path fill="rgb(255,255,255)" stroke="rgb(255,255,255)" stroke-width="1" opacity="1" d="M 352 33 L 377.5 33 L 378 33.5 L 378 138 L 352.5 138 L 352 137.5 L 352 33 Z " /><path fill="rgb(255,255,255)" stroke="rgb(255,255,255)" stroke-width="1" opacity="1" d="M 390 33 L 479.5 33 L 480 33.5 L 480 55 L 448 55 L 448 137.5 L 447.5 138 L 422 138 L 422 55.5 L 421.5 55 L 390 55 L 390 33 Z " /><path fill="rgb(255,255,255)" stroke="rgb(255,255,255)" stroke-width="1" opacity="1" d="M 556.5 36 Q 566 34 568 39.5 L 568 48.5 L 563 61.5 Q 551.2 81.2 535.5 97 L 535 95.5 Q 548.8 82.3 557 63.5 L 562 48.5 L 562 40.5 Q 561.3 37.3 556.5 38 L 545 47.5 L 537 60.5 L 530 82.5 L 528 100.5 L 527 101.5 L 527 110.5 L 526 111.5 L 526 131.5 L 529 144.5 L 533 148.5 L 531.5 149 L 529 148 Q 524.2 141.1 522 130.5 L 521 108.5 L 522 107.5 L 523 92.5 L 529 70.5 Q 535 52.5 547.5 41 L 556.5 36 Z " /><path fill="rgb(255,255,255)" stroke="rgb(255,255,255)" stroke-width="1" opacity="1" d="M 514.5 42 Q 523.9 40.6 526 46.5 L 527 51.5 Q 525.8 59.3 520.5 63 L 520 61.5 Q 525 59 524 50.5 Q 523 47 517.5 48 L 511 54.5 L 507 63.5 L 500 93 L 515 94.5 L 499 96 L 494 121.5 L 494 126.5 L 488 148.5 L 480 165.5 L 471.5 175 Q 466.6 179.1 458.5 180 L 454.5 179 L 452 176.5 Q 450 169.8 456 172 L 458.5 177 L 465.5 176 L 473 169.5 L 480 158.5 L 487 139.5 L 494 102.5 L 494 96 Q 491.9 97.6 486.5 97 L 485 94.5 L 486.5 93 L 495 93 L 499 70.5 L 504 54.5 L 512.5 43 L 514.5 42 Z " /><path fill="rgb(255,255,255)" stroke="rgb(255,255,255)" stroke-width="1" opacity="1" d="M 575.5 78 L 581.5 78 L 589 83.5 Q 597.1 92.4 596 110.5 L 592 126.5 Q 588.5 135.5 581.5 141 Q 578.5 144 571.5 143 L 566 139.5 L 561 127.5 L 561 118.5 L 563 112.5 Q 561.6 101.6 564 94.5 Q 566.1 84.1 573.5 79 L 575.5 78 Z M 578 81 L 575 82 Q 568 87 566 97 L 567 102 L 571 96 L 577 91 L 578 92 Q 568 99 567 117 L 575 123 L 585 123 L 586 123 L 583 125 L 576 125 L 567 118 L 565 121 L 566 131 L 569 137 L 574 140 L 581 139 Q 589 132 591 119 Q 594 96 586 85 Q 584 81 578 81 Z " /><path fill="rgb(255,255,255)" stroke="rgb(255,255,255)" stroke-width="1" opacity="1" d="M 601 83 Q 605.6 81.8 607 84.5 L 609 89.5 L 609 108.5 L 608 109.5 L 608 130.5 L 611.5 137 L 613.5 137 L 618 132.5 Q 624.6 122.1 627 107.5 L 629.5 105 L 632 106 L 633 108.5 L 633 126.5 L 635.5 131 Q 639.5 131.5 640 128.5 L 643 118.5 L 643 112.5 L 646 97.5 L 649 89.5 L 651.5 87 L 656.5 86 L 662 89.5 L 663 91.5 L 661.5 92 Q 660.3 89.8 655.5 91 Q 650.1 95.1 648 102.5 L 644 120.5 L 644 125.5 L 641 134 L 638.5 135 L 632 130.5 L 626.5 118 Q 622.9 131.9 613.5 140 L 607.5 141 L 604 135.5 L 604 117.5 L 607 102.5 L 607 90.5 L 604.5 85 L 600.5 87 L 600 85.5 L 601 83 Z " /><path fill="rgb(0,0,0)" stroke="rgb(0,0,0)" stroke-width="1" opacity="0" d="M 0 0 L 662.5 0 L 663 0.5 L 663 88.5 L 661.5 88 Q 658.9 84.6 651.5 86 L 645 97.5 L 642 113.5 L 642 119.5 L 637.5 130 Q 633.8 131.3 635 127.5 L 634 126.5 L 634 111.5 L 631.5 105 Q 626.1 103.1 627 106.5 L 621 125.5 L 613.5 136 Q 610.2 137.1 611 134.5 L 609 131.5 L 608 119.5 L 609 118.5 L 609 107.5 L 610 106.5 L 610 90.5 L 607 83 L 601.5 82 Q 598.2 84 599 89 Q 601.7 90.1 601 87.5 L 605 86 L 606 89.5 L 606 104.5 L 603 119.5 L 603 134.5 L 607.5 142 L 611.5 142 L 619 135.5 L 626.5 121 Q 628.9 130.1 635.5 135 Q 640.8 136.3 642 133.5 L 645 124.5 L 648 105.5 L 652 95.5 L 655.5 92 L 658.5 91 L 663 93 L 663 190.5 L 662.5 191 L 0 191 L 0 0 Z M 10 32 L 10 138 L 38 138 L 38 98 L 80 98 L 80 138 L 108 138 L 108 138 L 108 32 L 80 32 L 80 75 L 38 75 L 38 32 L 10 32 Z M 163 32 L 117 137 L 118 138 L 146 138 L 152 122 L 154 120 L 198 120 L 204 138 L 235 138 L 191 34 L 191 32 L 163 32 Z M 244 32 L 244 138 L 308 138 L 319 135 L 326 131 Q 335 125 337 113 Q 338 98 331 91 Q 326 85 318 83 L 323 80 Q 330 75 333 66 Q 335 52 330 47 Q 322 36 307 33 L 299 33 L 298 32 L 244 32 Z M 351 32 L 351 138 L 352 138 L 379 138 L 379 33 L 379 32 L 351 32 Z M 390 32 L 390 55 L 421 55 L 421 56 L 421 138 L 449 138 L 449 56 L 450 55 L 481 55 L 481 34 L 480 32 L 390 32 Z M 558 35 L 548 40 Q 537 49 531 64 L 525 81 L 521 101 L 521 129 L 522 134 Q 524 145 532 150 L 535 149 L 534 148 L 529 143 L 527 134 L 527 109 L 528 108 L 528 100 L 529 99 L 531 82 Q 535 62 545 49 L 555 40 L 560 39 L 562 43 L 561 50 L 553 71 Q 545 85 534 96 L 535 98 L 537 97 L 557 73 L 569 49 Q 570 42 568 39 Q 566 34 558 35 Z M 515 41 L 513 42 Q 505 48 502 58 L 498 72 L 495 92 L 489 93 Q 483 91 484 96 L 488 98 L 490 97 L 494 98 L 486 141 Q 481 157 472 170 Q 468 175 460 177 L 457 172 L 455 171 L 451 173 Q 450 179 455 180 Q 467 182 472 176 Q 483 166 488 151 L 493 135 L 499 100 L 502 96 L 516 96 L 516 94 L 508 92 L 501 92 L 509 61 Q 512 53 518 49 Q 522 48 523 51 Q 524 59 519 62 Q 518 66 522 64 L 527 55 L 527 47 Q 524 40 515 41 Z M 577 77 L 574 78 Q 567 83 564 92 L 562 101 L 562 114 L 560 121 L 562 135 L 565 140 L 573 144 Q 579 145 582 142 Q 589 136 593 127 L 597 108 L 595 93 L 590 84 Q 587 77 577 77 Z " /><path fill="rgb(0,0,0)" stroke="rgb(0,0,0)" stroke-width="1" opacity="0" d="M 272 54 L 294.5 54 L 300.5 56 L 303 58.5 L 304 67.5 L 299.5 73 L 297.5 74 L 272 74 L 272 54 Z " /><path fill="rgb(0,0,0)" stroke="rgb(0,0,0)" stroke-width="1" opacity="0" d="M 175.5 62 L 189 98 L 162.5 98 L 162 95.5 L 175.5 62 Z " /><path fill="rgb(0,0,0)" stroke="rgb(0,0,0)" stroke-width="1" opacity="0" d="M 576.5 82 Q 583 81 585 84.5 L 589 92.5 L 591 110.5 L 590 111.5 L 590 119.5 L 587 129.5 L 580.5 138 L 575.5 140 L 569 135.5 L 566 126.5 L 566 119.5 L 571.5 124 Q 574.8 126.7 581.5 126 L 587 122.5 L 581.5 122 L 577.5 123 L 573.5 122 L 568 116.5 L 567 112.5 L 573 97.5 L 577.5 93 Q 579.8 93.8 579 91.5 L 576.5 90 L 570 95.5 L 567.5 100 L 567 95.5 Q 568.8 87.3 574.5 83 L 576.5 82 Z " /><path fill="rgb(0,0,0)" stroke="rgb(0,0,0)" stroke-width="1" opacity="0" d="M 272 95 L 297.5 95 Q 304 96.5 307 101.5 L 308 106.5 L 303.5 114 L 293.5 117 L 272 117 L 272 95 Z " /></svg>